<svg width="199" height="199" viewBox="0 0 199 199" fill="none" xmlns="http://www.w3.org/2000/svg">
<g clip-path="url(#clip0_302_289)">
<path d="M37.5788 131.509H86.1689C88.1472 131.509 89.7509 133.108 89.7509 135.081V161.356C89.7509 163.329 88.1472 164.928 86.1689 164.928H37.5788C35.6005 164.928 33.9968 163.329 33.9968 161.356V135.081C33.9968 133.108 35.6005 131.509 37.5788 131.509Z" fill="white"/>
<path opacity="0.1" d="M37.5788 131.509H86.1689C88.1472 131.509 89.7509 133.108 89.7509 135.081V161.356C89.7509 163.329 88.1472 164.928 86.1689 164.928H37.5788C35.6005 164.928 33.9968 163.329 33.9968 161.356V135.081C33.9968 133.108 35.6005 131.509 37.5788 131.509Z" fill="#18B372"/>
<path d="M49.3546 149.428H53.6569C53.9189 149.428 54.1312 149.64 54.1312 149.901V159.41C54.1312 159.671 53.9189 159.883 53.6569 159.883H49.3546C49.0926 159.883 48.8803 159.671 48.8803 159.41V149.901C48.8803 149.64 49.0926 149.428 49.3546 149.428Z" fill="white"/>
<path d="M38.9865 141.297H43.2889C43.5508 141.297 43.7632 141.509 43.7632 141.77V159.41C43.7632 159.671 43.5508 159.883 43.2889 159.883H38.9865C38.7246 159.883 38.5123 159.671 38.5123 159.41V141.77C38.5123 141.509 38.7246 141.297 38.9865 141.297Z" fill="white"/>
<path d="M80.4591 149.428H84.7614C85.0234 149.428 85.2357 149.64 85.2357 149.901V159.41C85.2357 159.671 85.0234 159.883 84.7614 159.883H80.4591C80.1971 159.883 79.9848 159.671 79.9848 159.41V149.901C79.9848 149.64 80.1971 149.428 80.4591 149.428Z" fill="white"/>
<path d="M70.0908 137.6H74.3932C74.6551 137.6 74.8675 137.811 74.8675 138.073V159.41C74.8675 159.671 74.6551 159.883 74.3932 159.883H70.0908C69.8289 159.883 69.6166 159.671 69.6166 159.41V138.073C69.6166 137.811 69.8289 137.6 70.0908 137.6Z" fill="white"/>
<path d="M59.7228 147.085H64.0252C64.2871 147.085 64.4995 147.296 64.4995 147.558V159.41C64.4995 159.671 64.2871 159.883 64.0252 159.883H59.7228C59.4609 159.883 59.2485 159.671 59.2485 159.41V147.558C59.2485 147.296 59.4609 147.085 59.7228 147.085Z" fill="white"/>
<path d="M125.029 111.069H186.699C189.21 111.069 191.245 113.099 191.245 115.603V148.951C191.245 151.455 189.21 153.485 186.699 153.485H125.029C122.518 153.485 120.483 151.455 120.483 148.951V115.603C120.483 113.099 122.518 111.069 125.029 111.069Z" fill="white"/>
<path opacity="0.1" d="M125.029 111.069H186.699C189.21 111.069 191.245 113.099 191.245 115.603V148.951C191.245 151.455 189.21 153.485 186.699 153.485H125.029C122.518 153.485 120.483 151.455 120.483 148.951V115.603C120.483 113.099 122.518 111.069 125.029 111.069Z" fill="#18B372"/>
<path d="M139.975 133.812H145.435C145.768 133.812 146.037 134.081 146.037 134.412V146.481C146.037 146.813 145.768 147.082 145.435 147.082H139.975C139.642 147.082 139.373 146.813 139.373 146.481V134.412C139.373 134.081 139.642 133.812 139.975 133.812Z" fill="white"/>
<path d="M126.816 123.492H132.276C132.609 123.492 132.878 123.761 132.878 124.093V146.482C132.878 146.813 132.609 147.082 132.276 147.082H126.816C126.483 147.082 126.214 146.813 126.214 146.482V124.093C126.214 123.761 126.483 123.492 126.816 123.492Z" fill="white"/>
<path d="M179.452 133.812H184.913C185.245 133.812 185.515 134.081 185.515 134.412V146.481C185.515 146.813 185.245 147.082 184.913 147.082H179.452C179.12 147.082 178.85 146.813 178.85 146.481V134.412C178.85 134.081 179.12 133.812 179.452 133.812Z" fill="white"/>
<path d="M166.293 118.8H171.754C172.086 118.8 172.355 119.069 172.355 119.4V146.481C172.355 146.813 172.086 147.082 171.754 147.082H166.293C165.961 147.082 165.691 146.813 165.691 146.481V119.4C165.691 119.069 165.961 118.8 166.293 118.8Z" fill="white"/>
<path d="M153.134 130.838H158.594C158.927 130.838 159.196 131.107 159.196 131.438V146.481C159.196 146.813 158.927 147.082 158.594 147.082H153.134C152.801 147.082 152.532 146.813 152.532 146.481V131.438C152.532 131.107 152.801 130.838 153.134 130.838Z" fill="white"/>
<path d="M8.10731 0H78.9345C81.8181 0 84.1558 2.33103 84.1558 5.20651V43.5073C84.1558 46.3827 81.8181 48.7138 78.9345 48.7138H8.10731C5.22363 48.7138 2.88596 46.3827 2.88596 43.5073V5.20651C2.88596 2.33103 5.22363 0 8.10731 0Z" fill="white"/>
<path opacity="0.1" d="M8.10731 0H78.9345C81.8181 0 84.1558 2.33103 84.1558 5.20651V43.5073C84.1558 46.3827 81.8181 48.7138 78.9345 48.7138H8.10731C5.22363 48.7138 2.88596 46.3827 2.88596 43.5073V5.20651C2.88596 2.33103 5.22363 0 8.10731 0Z" fill="#18B372"/>
<path d="M25.2719 26.1202H31.5434C31.9251 26.1202 32.2346 26.4288 32.2346 26.8095V40.6707C32.2346 41.0514 31.9251 41.36 31.5434 41.36H25.2719C24.8902 41.36 24.5807 41.0514 24.5807 40.6707V26.8095C24.5807 26.4288 24.8902 26.1202 25.2719 26.1202Z" fill="white"/>
<path d="M10.1589 14.2678H16.4303C16.8121 14.2678 17.1216 14.5764 17.1216 14.9571V40.6707C17.1216 41.0514 16.8121 41.36 16.4303 41.36H10.1589C9.77714 41.36 9.46766 41.0514 9.46766 40.6707V14.9571C9.46766 14.5764 9.77714 14.2678 10.1589 14.2678Z" fill="white"/>
<path d="M70.6114 26.1202H76.8828C77.2646 26.1202 77.5741 26.4288 77.5741 26.8095V40.6707C77.5741 41.0514 77.2646 41.36 76.8828 41.36H70.6114C70.2296 41.36 69.9202 41.0514 69.9202 40.6707V26.8095C69.9202 26.4288 70.2296 26.1202 70.6114 26.1202Z" fill="white"/>
<path d="M55.4982 8.87874H61.7696C62.1514 8.87874 62.4609 9.18734 62.4609 9.56802V40.6707C62.4609 41.0514 62.1514 41.36 61.7696 41.36H55.4982C55.1164 41.36 54.8069 41.0514 54.8069 40.6707V9.56802C54.8069 9.18734 55.1164 8.87874 55.4982 8.87874Z" fill="white"/>
<path d="M40.3851 22.7041H46.6566C47.0384 22.7041 47.3478 23.0127 47.3478 23.3934V40.6705C47.3478 41.0512 47.0384 41.3598 46.6566 41.3598H40.3851C40.0034 41.3598 39.6939 41.0512 39.6939 40.6705V23.3934C39.6939 23.0127 40.0034 22.7041 40.3851 22.7041Z" fill="white"/>
<path d="M161.902 40.2075H196.453C197.86 40.2075 199 41.3446 199 42.7472V61.4314C199 62.834 197.86 63.9711 196.453 63.9711H161.902C160.495 63.9711 159.355 62.834 159.355 61.4314V42.7472C159.355 41.3446 160.495 40.2075 161.902 40.2075Z" fill="white"/>
<path opacity="0.3" d="M161.902 40.2075H196.453C197.86 40.2075 199 41.3446 199 42.7472V61.4314C199 62.834 197.86 63.9711 196.453 63.9711H161.902C160.495 63.9711 159.355 62.834 159.355 61.4314V42.7472C159.355 41.3446 160.495 40.2075 161.902 40.2075Z" fill="#18B372"/>
<path d="M170.275 52.9495H173.334C173.521 52.9495 173.672 53.1 173.672 53.2856V60.0477C173.672 60.2333 173.521 60.3839 173.334 60.3839H170.275C170.089 60.3839 169.938 60.2333 169.938 60.0477V53.2856C169.938 53.1 170.089 52.9495 170.275 52.9495Z" fill="white"/>
<path d="M162.903 47.1675H165.962C166.148 47.1675 166.299 47.318 166.299 47.5037V60.0475C166.299 60.2331 166.148 60.3837 165.962 60.3837H162.903C162.716 60.3837 162.565 60.2331 162.565 60.0475V47.5037C162.565 47.318 162.716 47.1675 162.903 47.1675Z" fill="white"/>
<path d="M192.393 52.9495H195.452C195.638 52.9495 195.789 53.1 195.789 53.2856V60.0477C195.789 60.2333 195.638 60.3839 195.452 60.3839H192.393C192.206 60.3839 192.056 60.2333 192.056 60.0477V53.2856C192.056 53.1 192.206 52.9495 192.393 52.9495Z" fill="white"/>
<path d="M185.02 44.5387H188.08C188.266 44.5387 188.417 44.6892 188.417 44.8749V60.0477C188.417 60.2333 188.266 60.3839 188.08 60.3839H185.02C184.834 60.3839 184.683 60.2333 184.683 60.0477V44.8749C184.683 44.6892 184.834 44.5387 185.02 44.5387Z" fill="white"/>
<path d="M177.648 51.283H180.707C180.893 51.283 181.044 51.4335 181.044 51.6192V60.0475C181.044 60.2331 180.893 60.3836 180.707 60.3836H177.648C177.461 60.3836 177.31 60.2331 177.31 60.0475V51.6192C177.31 51.4335 177.461 51.283 177.648 51.283Z" fill="white"/>
<path d="M166.06 124.437L26.5105 124.437C23.0835 124.437 20.3054 121.666 20.3054 118.249L20.3054 16.3682C20.3054 12.951 23.0835 10.1808 26.5105 10.1808L166.06 10.1808C169.487 10.1808 172.265 12.951 172.265 16.3682V118.249C172.265 121.666 169.487 124.437 166.06 124.437Z" fill="white"/>
<path d="M172.472 118.249V16.3682C172.47 14.6731 171.794 13.0479 170.592 11.8493C169.39 10.6507 167.76 9.97644 166.06 9.97453H26.5107C24.8107 9.97644 23.181 10.6507 21.9789 11.8493C20.7769 13.0479 20.1007 14.6731 20.0988 16.3682V118.249C20.1007 119.944 20.7769 121.569 21.9789 122.768C23.181 123.967 24.8107 124.641 26.5107 124.643H166.06C167.76 124.641 169.39 123.967 170.592 122.768C171.794 121.569 172.47 119.944 172.472 118.249ZM166.06 10.387C167.65 10.3889 169.175 11.0196 170.299 12.1409C171.424 13.2622 172.056 14.7825 172.058 16.3682V118.249C172.056 119.835 171.424 121.355 170.299 122.477C169.175 123.598 167.65 124.229 166.06 124.23H26.5107C24.9204 124.229 23.3957 123.598 22.2712 122.477C21.1467 121.355 20.5142 119.835 20.5125 118.249V16.3682C20.5143 14.7824 21.1468 13.2622 22.2713 12.1409C23.3958 11.0196 24.9204 10.3888 26.5107 10.387H166.06Z" fill="#292A2E"/>
<path d="M172.265 16.3676V22.5936H20.3063V16.3676C20.3063 14.7266 20.96 13.1528 22.1237 11.9924C23.2874 10.832 24.8656 10.1802 26.5113 10.1802H166.06C167.705 10.1802 169.284 10.832 170.447 11.9924C171.611 13.1528 172.265 14.7266 172.265 16.3676Z" fill="#292A2E"/>
<path d="M28.5161 28.5098H87.7264C89.1798 28.5098 90.358 29.6846 90.358 31.1339V72.9006C90.358 74.3498 89.1798 75.5247 87.7264 75.5247H28.5161C27.0628 75.5247 25.8846 74.3498 25.8846 72.9006V31.1339C25.8846 29.6846 27.0628 28.5098 28.5161 28.5098Z" fill="white"/>
<path opacity="0.15" d="M28.5161 28.5098H87.7264C89.1798 28.5098 90.358 29.6846 90.358 31.1339V72.9006C90.358 74.3498 89.1798 75.5247 87.7264 75.5247H28.5161C27.0628 75.5247 25.8846 74.3498 25.8846 72.9006V31.1339C25.8846 29.6846 27.0628 28.5098 28.5161 28.5098Z" fill="#18B372"/>
<path d="M78.7853 34.3765H83.9026C84.1404 34.3765 84.3331 34.5686 84.3331 34.8057V69.2288C84.3331 69.4658 84.1404 69.658 83.9026 69.658H78.7853C78.5476 69.658 78.3549 69.4658 78.3549 69.2288V34.8057C78.3549 34.5686 78.5476 34.3765 78.7853 34.3765Z" fill="#FAFAFA"/>
<path opacity="0.6" d="M84.3331 51.6709H78.3555V69.2288C78.3555 69.3426 78.4009 69.4518 78.4816 69.5323C78.5623 69.6128 78.6718 69.658 78.786 69.658H83.9026C84.0168 69.658 84.1263 69.6128 84.207 69.5323C84.2877 69.4518 84.3331 69.3426 84.3331 69.2288V51.6709Z" fill="#18B372"/>
<path d="M67.174 34.3765H72.2913C72.529 34.3765 72.7217 34.5686 72.7217 34.8057V69.2288C72.7217 69.4658 72.529 69.658 72.2913 69.658H67.174C66.9363 69.658 66.7436 69.4658 66.7436 69.2288V34.8057C66.7436 34.5686 66.9363 34.3765 67.174 34.3765Z" fill="#FAFAFA"/>
<path opacity="0.6" d="M72.7217 46.781H66.7442V69.2286C66.7442 69.3424 66.7896 69.4516 66.8703 69.5321C66.951 69.6125 67.0605 69.6578 67.1746 69.6578H72.2913C72.4055 69.6578 72.515 69.6125 72.5957 69.5321C72.6764 69.4516 72.7217 69.3424 72.7217 69.2286V46.781Z" fill="#18B372"/>
<path d="M32.3399 34.3765H37.4572C37.6949 34.3765 37.8876 34.5686 37.8876 34.8057V69.2288C37.8876 69.4658 37.6949 69.658 37.4572 69.658H32.3399C32.1022 69.658 31.9095 69.4658 31.9095 69.2288V34.8057C31.9095 34.5686 32.1022 34.3765 32.3399 34.3765Z" fill="#FAFAFA"/>
<path opacity="0.6" d="M37.8876 41.8476H31.9101V69.229C31.9101 69.3428 31.9554 69.452 32.0362 69.5325C32.1169 69.613 32.2264 69.6582 32.3405 69.6582H37.457C37.5712 69.6582 37.6806 69.613 37.7614 69.5325C37.8421 69.452 37.8874 69.3428 37.8874 69.229V41.8476H37.8876Z" fill="#18B372"/>
<path d="M55.5625 34.3765H60.6798C60.9175 34.3765 61.1102 34.5686 61.1102 34.8057V69.2288C61.1102 69.4658 60.9175 69.658 60.6798 69.658H55.5625C55.3248 69.658 55.1321 69.4658 55.1321 69.2288V34.8057C55.1321 34.5686 55.3248 34.3765 55.5625 34.3765Z" fill="#FAFAFA"/>
<path opacity="0.6" d="M61.1102 59.5799H55.1327V69.2288C55.1327 69.3426 55.178 69.4518 55.2588 69.5323C55.3395 69.6128 55.449 69.658 55.5631 69.658H60.6798C60.794 69.658 60.9034 69.6128 60.9842 69.5323C61.0649 69.4518 61.1102 69.3426 61.1102 69.2288V59.5799Z" fill="#18B372"/>
<path d="M43.9512 34.3765H49.0685C49.3062 34.3765 49.4989 34.5686 49.4989 34.8057V69.2288C49.4989 69.4658 49.3062 69.658 49.0685 69.658H43.9512C43.7134 69.658 43.5207 69.4658 43.5207 69.2288V34.8057C43.5207 34.5686 43.7134 34.3765 43.9512 34.3765Z" fill="#FAFAFA"/>
<path opacity="0.6" d="M49.4996 53.4148H43.522V69.2286C43.522 69.3424 43.5674 69.4516 43.6481 69.5321C43.7288 69.6126 43.8383 69.6578 43.9525 69.6578H49.0685C49.1251 69.6578 49.181 69.6467 49.2332 69.6251C49.2855 69.6035 49.3329 69.5719 49.3729 69.5321C49.4128 69.4922 49.4446 69.4449 49.4662 69.3928C49.4878 69.3407 49.499 69.2849 49.499 69.2286V53.4148H49.4996Z" fill="#18B372"/>
<path opacity="0.15" d="M29.6517 80.1267H87.3032C89.3837 80.1267 91.0703 81.8085 91.0703 83.883V115.012C91.0703 117.087 89.3837 118.769 87.3032 118.769H29.6517C27.5712 118.769 25.8846 117.087 25.8846 115.012V83.883C25.8846 81.8085 27.5712 80.1267 29.6517 80.1267Z" fill="#18B372"/>
<path d="M52.0771 89.7788C51.3038 89.7788 50.6769 89.1537 50.6769 88.3825C50.6769 87.6114 51.3038 86.9862 52.0771 86.9862C52.8505 86.9862 53.4774 87.6114 53.4774 88.3825C53.4774 89.1537 52.8505 89.7788 52.0771 89.7788Z" fill="#18B372"/>
<path d="M52.0771 96.8966C51.3038 96.8966 50.6769 96.2715 50.6769 95.5003C50.6769 94.7292 51.3038 94.1041 52.0771 94.1041C52.8505 94.1041 53.4774 94.7292 53.4774 95.5003C53.4774 96.2715 52.8505 96.8966 52.0771 96.8966Z" fill="#262626"/>
<path d="M52.0771 104.015C51.3038 104.015 50.6769 103.39 50.6769 102.618C50.6769 101.847 51.3038 101.222 52.0771 101.222C52.8505 101.222 53.4774 101.847 53.4774 102.618C53.4774 103.39 52.8505 104.015 52.0771 104.015Z" fill="white"/>
<path opacity="0.5" d="M52.0771 111.132C51.3038 111.132 50.6769 110.507 50.6769 109.736C50.6769 108.965 51.3038 108.34 52.0771 108.34C52.8505 108.34 53.4774 108.965 53.4774 109.736C53.4774 110.507 52.8505 111.132 52.0771 111.132Z" fill="#18B372"/>
<path d="M32.6448 88.3819C32.6448 88.5914 32.7282 88.7923 32.8768 88.9405C33.0253 89.0886 33.2268 89.1719 33.4369 89.1719H46.8965C47.0838 89.1753 47.2665 89.1144 47.4141 88.9996C47.5618 88.8847 47.6654 88.7227 47.7075 88.5407C47.731 88.4258 47.7286 88.3072 47.7004 88.1933C47.6722 88.0795 47.619 87.9733 47.5446 87.8825C47.4702 87.7917 47.3765 87.7185 47.2702 87.6682C47.164 87.618 47.0478 87.592 46.9302 87.592H33.4369C33.3329 87.592 33.2299 87.6124 33.1338 87.6521C33.0376 87.6918 32.9503 87.7499 32.8767 87.8233C32.8031 87.8967 32.7448 87.9838 32.705 88.0796C32.6652 88.1755 32.6447 88.2782 32.6448 88.3819Z" fill="white"/>
<path d="M32.6448 95.5001C32.6448 95.7096 32.7282 95.9106 32.8768 96.0587C33.0253 96.2068 33.2268 96.2901 33.4369 96.2901H46.8885C46.9983 96.2917 47.1074 96.2714 47.2092 96.2302C47.311 96.1891 47.4036 96.128 47.4813 96.0506C47.559 95.9732 47.6204 95.881 47.6618 95.7795C47.7032 95.678 47.7237 95.5693 47.7222 95.4597C47.7116 95.2574 47.6235 95.0669 47.4762 94.9275C47.3288 94.7881 47.1334 94.7104 46.9302 94.7104H33.4369C33.3329 94.7104 33.2299 94.7308 33.1338 94.7705C33.0377 94.8102 32.9504 94.8683 32.8768 94.9417C32.8032 95.015 32.7449 95.1021 32.7051 95.1979C32.6653 95.2937 32.6448 95.3964 32.6448 95.5001Z" fill="white"/>
<path d="M32.6448 102.618C32.6448 102.828 32.7282 103.029 32.8768 103.177C33.0253 103.325 33.2268 103.408 33.4369 103.408H47.0119C47.2006 103.408 47.3816 103.334 47.5151 103.2C47.6485 103.067 47.7234 102.887 47.7234 102.699V102.538C47.7234 102.35 47.6485 102.169 47.5151 102.036C47.3816 101.903 47.2006 101.829 47.0119 101.829H33.4369C33.3329 101.829 33.2299 101.849 33.1338 101.889C33.0377 101.928 32.9504 101.987 32.8768 102.06C32.8032 102.133 32.7449 102.22 32.7051 102.316C32.6653 102.412 32.6448 102.515 32.6448 102.618Z" fill="white"/>
<path d="M32.6448 109.737C32.6448 109.946 32.7282 110.147 32.8768 110.295C33.0253 110.443 33.2268 110.526 33.4369 110.526H46.8934C47.081 110.53 47.264 110.469 47.4122 110.355C47.5603 110.24 47.6645 110.078 47.7075 109.896C47.7311 109.781 47.7287 109.662 47.7005 109.549C47.6724 109.435 47.6192 109.329 47.5449 109.238C47.4705 109.147 47.3768 109.074 47.2706 109.024C47.1643 108.973 47.0482 108.947 46.9307 108.947H33.4374C33.3333 108.947 33.2303 108.968 33.1342 109.007C33.0381 109.047 32.9507 109.105 32.8771 109.178C32.8035 109.251 32.7451 109.339 32.7052 109.434C32.6654 109.53 32.6448 109.633 32.6448 109.737Z" fill="white"/>
<path d="M78.3505 99.0594C78.3502 100.761 77.8205 102.421 76.8346 103.811C75.8487 105.2 74.455 106.251 72.8454 106.817L75.109 112.322C78.2222 111.152 80.8252 108.93 82.4642 106.043C84.1033 103.156 84.6747 99.7876 84.0787 96.5238C83.4828 93.2599 81.7574 90.308 79.203 88.1824C76.6487 86.0567 73.4275 84.8921 70.1005 84.8914V90.8342C72.2883 90.8342 74.3866 91.7007 75.9337 93.2432C77.4809 94.7856 78.3502 96.8778 78.3505 99.0594Z" fill="#18B372"/>
<path d="M55.8907 99.0594H61.8507C61.8507 96.8776 62.7198 94.7852 64.2669 93.2425C65.814 91.6998 67.9123 90.833 70.1003 90.833V84.8902C66.3317 84.8902 62.7174 86.383 60.0526 89.0402C57.3878 91.6975 55.8907 95.3014 55.8907 99.0594Z" fill="#262626"/>
<path d="M55.8907 99.0594C55.8911 102.27 56.9845 105.385 58.9919 107.895C60.9994 110.406 63.802 112.162 66.9409 112.877L67.9504 107.002C66.1997 106.531 64.6536 105.497 63.551 104.061C62.4484 102.626 61.8508 100.868 61.8505 99.0594H55.8907Z" fill="white"/>
<path opacity="0.5" d="M66.9411 112.877C69.6597 113.491 72.4991 113.298 75.109 112.322L72.8454 106.817C71.2697 107.369 69.5638 107.434 67.9507 107.003L66.9411 112.877Z" fill="#18B372"/>
<path opacity="0.15" d="M99.3419 28.5098H162.97C165.027 28.5098 166.693 30.1719 166.693 32.2222V115.056C166.693 117.106 165.027 118.769 162.97 118.769H99.3419C97.2857 118.769 95.6188 117.106 95.6188 115.056V32.2222C95.6188 30.1719 97.2857 28.5098 99.3419 28.5098Z" fill="#18B372"/>
<path d="M111.926 63.736C111.926 67.8546 113.151 71.8806 115.446 75.3051C117.74 78.7296 121.002 81.3987 124.818 82.9748C128.634 84.5509 132.832 84.9633 136.883 84.1599C140.934 83.3564 144.655 81.3731 147.576 78.4609C150.497 75.5486 152.485 71.8382 153.291 67.7988C154.097 63.7594 153.684 59.5724 152.103 55.7673C150.522 51.9623 147.846 48.71 144.412 46.4219C140.977 44.1337 136.94 42.9124 132.809 42.9124V63.736H111.926Z" fill="#FAFAFA"/>
<path opacity="0.6" d="M109.366 61.0311H130.248V40.2075C124.71 40.2077 119.398 42.4017 115.482 46.3069C111.566 50.212 109.366 55.5085 109.366 61.0311Z" fill="#18B372"/>
<path opacity="0.6" d="M154.464 96.3726C153.69 96.3726 153.064 95.7474 153.064 94.9763C153.064 94.2051 153.69 93.58 154.464 93.58C155.237 93.58 155.864 94.2051 155.864 94.9763C155.864 95.7474 155.237 96.3726 154.464 96.3726Z" fill="#18B372"/>
<path d="M154.464 103.491C153.69 103.491 153.064 102.865 153.064 102.094C153.064 101.323 153.69 100.698 154.464 100.698C155.237 100.698 155.864 101.323 155.864 102.094C155.864 102.865 155.237 103.491 154.464 103.491Z" fill="#FAFAFA"/>
<path opacity="0.6" d="M106.488 94.9769C106.488 95.1864 106.572 95.3873 106.72 95.5355C106.869 95.6836 107.07 95.7668 107.281 95.7668H149.283C149.471 95.7702 149.653 95.7094 149.801 95.5945C149.949 95.4795 150.052 95.3175 150.094 95.1355C150.118 95.0206 150.115 94.9019 150.087 94.7881C150.059 94.6742 150.006 94.568 149.931 94.4772C149.857 94.3864 149.763 94.3132 149.657 94.263C149.551 94.2128 149.435 94.1867 149.317 94.1868H107.281C107.177 94.1868 107.074 94.2072 106.977 94.2469C106.881 94.2866 106.794 94.3448 106.72 94.4182C106.647 94.4916 106.588 94.5787 106.549 94.6745C106.509 94.7704 106.488 94.8731 106.488 94.9769Z" fill="#18B372"/>
<path d="M106.488 102.094C106.488 102.304 106.572 102.504 106.72 102.653C106.869 102.801 107.071 102.884 107.281 102.884H149.275C149.385 102.886 149.494 102.865 149.596 102.824C149.698 102.783 149.79 102.722 149.868 102.645C149.946 102.567 150.007 102.475 150.049 102.373C150.09 102.272 150.111 102.163 150.109 102.054C150.098 101.851 150.01 101.661 149.863 101.521C149.716 101.382 149.52 101.304 149.317 101.304H107.281C107.177 101.304 107.074 101.325 106.977 101.364C106.881 101.404 106.794 101.462 106.72 101.536C106.647 101.609 106.589 101.696 106.549 101.792C106.509 101.888 106.488 101.99 106.488 102.094Z" fill="white"/>
<path d="M172.762 176.766C172.784 176.766 172.806 176.762 172.827 176.753C172.848 176.745 172.866 176.732 172.882 176.716C173.122 176.478 173.512 172.095 174.564 159.046C174.994 153.707 175.401 148.664 175.698 145.599C175.718 145.38 175.804 145.355 175.832 145.346C176.238 145.224 177.473 146.195 178.162 147.046C178.176 147.063 178.194 147.077 178.213 147.088C178.233 147.099 178.254 147.105 178.277 147.108C178.299 147.11 178.321 147.108 178.343 147.102C178.364 147.095 178.384 147.085 178.401 147.071C178.419 147.057 178.433 147.04 178.444 147.02C178.455 147.001 178.461 146.979 178.464 146.957C178.466 146.935 178.464 146.912 178.458 146.891C178.451 146.87 178.441 146.85 178.427 146.832C177.972 146.27 176.485 144.796 175.734 145.022C175.621 145.06 175.524 145.134 175.456 145.232C175.389 145.33 175.355 145.448 175.359 145.566C175.062 148.634 174.656 153.679 174.225 159.019C173.586 166.949 172.862 175.931 172.624 176.498C172.606 176.523 172.595 176.553 172.593 176.584C172.59 176.615 172.597 176.646 172.611 176.674C172.625 176.701 172.647 176.724 172.674 176.741C172.7 176.757 172.731 176.766 172.762 176.766V176.766Z" fill="#494949"/>
<path d="M176.134 151.223C173.313 148.968 172.377 145.458 174.045 143.383C175.713 141.309 179.352 141.455 182.174 143.71C184.995 145.965 185.93 149.475 184.262 151.55C182.595 153.625 178.955 153.478 176.134 151.223Z" fill="#0CBC8B"/>
<path opacity="0.2" d="M176.134 151.223C173.313 148.968 172.377 145.458 174.045 143.383C175.713 141.309 179.352 141.455 182.174 143.71C184.995 145.965 185.93 149.475 184.262 151.55C182.595 153.625 178.955 153.478 176.134 151.223Z" fill="white"/>
<path d="M183.472 152.077C183.488 152.077 183.504 152.073 183.517 152.064C183.531 152.055 183.542 152.043 183.549 152.029C183.556 152.014 183.558 151.998 183.556 151.982C183.554 151.966 183.547 151.951 183.537 151.938L175.497 142.27C175.482 142.252 175.461 142.241 175.439 142.239C175.416 142.237 175.394 142.244 175.377 142.258C175.359 142.273 175.348 142.293 175.346 142.316C175.344 142.338 175.351 142.361 175.366 142.378L183.406 152.047C183.414 152.056 183.424 152.064 183.436 152.069C183.447 152.075 183.459 152.077 183.472 152.077Z" fill="white"/>
<path d="M171.008 174.693C171.035 174.693 171.062 174.687 171.086 174.674C171.11 174.662 171.131 174.644 171.147 174.622C171.162 174.6 171.172 174.574 171.176 174.548C171.18 174.521 171.178 174.494 171.169 174.468L168.149 165.807C168.06 165.552 167.909 165.324 167.708 165.143C167.508 164.962 167.265 164.834 167.003 164.771C166.74 164.707 166.465 164.711 166.204 164.781C165.943 164.851 165.704 164.985 165.509 165.171L163.912 166.692C163.88 166.724 163.862 166.766 163.862 166.81C163.861 166.855 163.878 166.898 163.909 166.93C163.94 166.962 163.982 166.981 164.026 166.982C164.071 166.984 164.114 166.968 164.147 166.937L165.744 165.417C165.898 165.27 166.087 165.164 166.293 165.108C166.499 165.053 166.716 165.05 166.923 165.1C167.131 165.15 167.322 165.251 167.48 165.394C167.638 165.537 167.758 165.717 167.828 165.918L170.848 174.58C170.859 174.614 170.881 174.642 170.91 174.662C170.939 174.683 170.973 174.693 171.008 174.693Z" fill="#494949"/>
<path d="M159.451 171.487C157.36 169.837 157.484 166.207 159.728 163.38C161.973 160.553 165.487 159.599 167.578 161.249C169.669 162.9 169.544 166.529 167.3 169.357C165.056 172.184 161.542 173.138 159.451 171.487Z" fill="#0CBC8B"/>
<path d="M174.134 176.214C174.172 176.214 174.209 176.201 174.239 176.177C174.269 176.154 174.291 176.121 174.3 176.084L179.367 154.951C179.402 154.807 179.475 154.675 179.58 154.57C179.685 154.465 179.817 154.391 179.961 154.356C180.105 154.321 180.257 154.326 180.398 154.371C180.54 154.416 180.666 154.499 180.763 154.611L182.326 156.412C182.34 156.429 182.358 156.444 182.378 156.454C182.398 156.465 182.42 156.471 182.443 156.473C182.465 156.475 182.488 156.473 182.51 156.466C182.531 156.459 182.551 156.448 182.569 156.433C182.586 156.418 182.6 156.4 182.61 156.379C182.62 156.359 182.626 156.337 182.627 156.314C182.628 156.292 182.625 156.269 182.618 156.248C182.61 156.226 182.598 156.207 182.583 156.19L181.02 154.39C180.882 154.23 180.703 154.112 180.502 154.048C180.301 153.984 180.086 153.977 179.881 154.027C179.675 154.077 179.488 154.182 179.339 154.331C179.19 154.48 179.085 154.668 179.036 154.872L173.969 176.005C173.964 176.026 173.963 176.049 173.966 176.071C173.97 176.093 173.978 176.114 173.989 176.133C174.001 176.152 174.016 176.168 174.034 176.181C174.052 176.195 174.073 176.204 174.095 176.209C174.108 176.212 174.121 176.214 174.134 176.214Z" fill="#494949"/>
<path d="M176.004 161.107C175.388 157.555 177.019 154.307 179.646 153.854C182.274 153.401 184.904 155.914 185.52 159.467C186.136 163.02 184.505 166.267 181.878 166.72C179.25 167.173 176.62 164.66 176.004 161.107Z" fill="#0CBC8B"/>
<path d="M172.762 176.766C172.769 176.766 172.776 176.766 172.782 176.765C172.827 176.759 172.868 176.736 172.896 176.701C172.923 176.666 172.936 176.621 172.931 176.576L169.694 150.372C169.659 150.087 169.542 149.817 169.357 149.597C169.171 149.376 168.927 149.213 168.651 149.128C168.375 149.043 168.081 149.039 167.803 149.117C167.526 149.195 167.276 149.351 167.086 149.566L163.386 153.744C163.371 153.761 163.36 153.78 163.353 153.801C163.345 153.822 163.342 153.845 163.344 153.867C163.345 153.889 163.351 153.911 163.361 153.931C163.371 153.951 163.384 153.969 163.401 153.984C163.418 153.998 163.437 154.01 163.458 154.017C163.479 154.024 163.502 154.027 163.524 154.026C163.546 154.024 163.568 154.019 163.588 154.009C163.608 153.999 163.626 153.985 163.641 153.969L167.34 149.791C167.488 149.624 167.681 149.504 167.895 149.444C168.11 149.384 168.337 149.387 168.55 149.452C168.763 149.518 168.952 149.644 169.095 149.814C169.239 149.985 169.329 150.193 169.356 150.413L172.593 176.617C172.598 176.658 172.618 176.696 172.649 176.723C172.68 176.751 172.72 176.766 172.762 176.766Z" fill="#494949"/>
<path d="M159.592 156.066C158.302 153.739 159.82 150.438 162.984 148.693C166.148 146.948 169.76 147.419 171.05 149.746C172.341 152.073 170.823 155.374 167.658 157.119C164.494 158.864 160.883 158.393 159.592 156.066Z" fill="#0CBC8B"/>
<path opacity="0.2" d="M159.451 171.487C157.36 169.837 157.484 166.207 159.728 163.38C161.973 160.553 165.487 159.599 167.578 161.249C169.669 162.9 169.544 166.529 167.3 169.357C165.056 172.184 161.542 173.138 159.451 171.487Z" fill="white"/>
<path opacity="0.5" d="M176.004 161.107C175.388 157.555 177.019 154.307 179.646 153.854C182.274 153.401 184.904 155.914 185.52 159.467C186.136 163.02 184.505 166.267 181.878 166.72C179.25 167.173 176.62 164.66 176.004 161.107Z" fill="white"/>
<path opacity="0.5" d="M159.592 156.066C158.302 153.739 159.82 150.438 162.984 148.693C166.148 146.948 169.76 147.419 171.05 149.746C172.341 152.073 170.823 155.374 167.658 157.119C164.494 158.864 160.883 158.393 159.592 156.066Z" fill="white"/>
<path d="M168.622 199H176.902L178.274 172.585H167.25L168.622 199Z" fill="#292A2E"/>
<path opacity="0.3" d="M168.622 199H176.902L178.274 172.585H167.25L168.622 199Z" fill="white"/>
<path d="M159.45 171.572C159.463 171.572 159.476 171.569 159.487 171.563C159.499 171.558 159.509 171.549 159.517 171.539L167.644 161.301C167.651 161.293 167.656 161.283 167.659 161.272C167.662 161.261 167.663 161.25 167.662 161.239C167.66 161.228 167.657 161.217 167.652 161.208C167.646 161.198 167.639 161.189 167.63 161.182C167.621 161.175 167.611 161.17 167.601 161.167C167.59 161.164 167.579 161.163 167.567 161.165C167.556 161.166 167.546 161.169 167.536 161.175C167.526 161.18 167.518 161.187 167.511 161.196L159.383 171.434C159.369 171.452 159.363 171.474 159.366 171.497C159.368 171.519 159.38 171.539 159.398 171.553C159.412 171.565 159.431 171.572 159.45 171.572Z" fill="white"/>
<path d="M160.133 156.886C160.151 156.886 160.168 156.881 160.183 156.87L170.582 149.298C170.592 149.291 170.6 149.283 170.606 149.274C170.612 149.264 170.616 149.253 170.618 149.242C170.62 149.231 170.62 149.22 170.617 149.209C170.614 149.198 170.61 149.187 170.603 149.178C170.596 149.169 170.588 149.161 170.578 149.155C170.568 149.15 170.557 149.146 170.546 149.144C170.535 149.143 170.523 149.143 170.512 149.146C170.501 149.149 170.491 149.154 170.482 149.161L160.082 156.733C160.068 156.744 160.057 156.759 160.052 156.776C160.046 156.793 160.046 156.811 160.052 156.828C160.057 156.845 160.068 156.86 160.083 156.87C160.097 156.881 160.115 156.886 160.133 156.886Z" fill="white"/>
<path d="M182.299 166.609C182.307 166.609 182.314 166.608 182.321 166.606C182.343 166.601 182.362 166.586 182.373 166.567C182.384 166.548 182.387 166.525 182.382 166.503L179.071 154.135C179.065 154.113 179.051 154.095 179.032 154.084C179.012 154.072 178.989 154.069 178.968 154.075C178.946 154.08 178.927 154.094 178.916 154.114C178.905 154.133 178.902 154.156 178.907 154.178L182.217 166.546C182.222 166.564 182.233 166.58 182.248 166.592C182.262 166.603 182.281 166.609 182.299 166.609Z" fill="white"/>
<path d="M13.3721 199H183.064C183.102 199 183.139 198.985 183.166 198.958C183.193 198.931 183.208 198.894 183.208 198.856C183.208 198.817 183.193 198.781 183.166 198.754C183.139 198.726 183.102 198.711 183.064 198.711H13.3721C13.3337 198.711 13.2969 198.726 13.2697 198.754C13.2426 198.781 13.2273 198.817 13.2273 198.856C13.2273 198.894 13.2426 198.931 13.2697 198.958C13.2969 198.985 13.3337 199 13.3721 199Z" fill="#292A2E"/>
<path d="M139.892 189.745C139.892 189.745 138.958 194.572 134.426 194.842C129.894 195.112 130.877 198.711 130.877 198.711H148.196V190.082L139.892 189.745Z" fill="#18B372"/>
<path d="M149.371 101.692C149.371 101.692 148.076 100.241 148.087 103.532C148.13 115.81 148.961 192.826 148.961 192.826L137.579 192.73L130.685 101.193L149.371 101.692Z" fill="#262626"/>
<path d="M120.457 189.745C120.457 189.745 119.523 194.572 114.991 194.841C110.459 195.11 111.442 198.71 111.442 198.71H128.762V190.082L120.457 189.745Z" fill="#18B372"/>
<path d="M118.256 102.645C118.256 102.645 116.834 144.607 116.982 146.658L118.319 192.507L129.512 192.713L131.317 144.999C131.317 144.999 132.5 131.838 135.689 119.616C137.321 113.343 138.303 106.92 138.62 100.448L118.256 102.645Z" fill="#262626"/>
<path d="M133.022 132.396L132.089 118.163C132.089 118.163 131.13 124.08 131.13 129.181C131.13 131.673 131.645 141.543 131.645 141.543L133.022 132.396Z" fill="#0A0A0A"/>
<path d="M149.494 101.69L149.532 101.693C149.532 101.693 149.504 100.977 149.494 101.69Z" fill="#333333"/>
<path d="M149.448 101.69L149.485 101.693C149.485 101.693 149.458 100.977 149.448 101.69Z" fill="#333333"/>
<path d="M87.0815 67.6312C87.1501 67.4958 87.2591 67.385 87.3935 67.314C87.5279 67.243 87.6811 67.2154 87.8319 67.235C87.8306 67.2216 87.8335 67.2082 87.8402 67.1966C87.8472 67.1876 87.8565 67.1806 87.8671 67.1763C87.8777 67.172 87.8892 67.1705 87.9006 67.1721L87.3916 66.8083C87.2391 66.7044 87.1296 66.5489 87.0833 66.3707C87.037 66.1925 87.057 66.0035 87.1396 65.8389C87.2263 65.6788 87.3696 65.5566 87.5416 65.496C87.7136 65.4353 87.9021 65.4406 88.0704 65.5108C88.069 65.5035 88.0739 65.4967 88.075 65.4901L87.8658 65.3408C87.7228 65.2422 87.6183 65.0974 87.5699 64.9309C87.5216 64.7643 87.5325 64.5862 87.6007 64.4267C87.6456 64.3276 87.7119 64.2397 87.795 64.1693C87.8781 64.0989 87.9758 64.0477 88.081 64.0195C88.1863 63.9913 88.2966 63.9867 88.4039 64.0061C88.5112 64.0254 88.6128 64.0683 88.7015 64.1316L89.184 64.4766C89.1854 64.4737 89.184 64.4704 89.1859 64.4678C89.1877 64.4651 89.1931 64.464 89.1958 64.4612C89.085 64.3368 89.0198 64.1787 89.011 64.0126C89.0022 63.8465 89.0503 63.6823 89.1474 63.5471C89.3749 63.1816 89.9009 63.2565 90.213 63.4794L93.0533 65.4357L92.5457 64.5835C92.4436 64.4194 92.4078 64.2229 92.4453 64.0334C92.4827 63.844 92.5908 63.6758 92.7478 63.5628C92.8309 63.5073 92.9245 63.4693 93.0228 63.4511C93.1212 63.4329 93.2222 63.4349 93.3197 63.4569C93.4173 63.479 93.5093 63.5206 93.5902 63.5792C93.6711 63.6379 93.7391 63.7123 93.7902 63.7981L96.5618 68.4514C96.887 68.9973 96.986 69.6482 96.8377 70.2657C96.6893 70.8832 96.3053 71.4187 95.7674 71.7584C95.1434 72.1524 94.4157 72.3516 93.6774 72.3304C92.9392 72.3093 92.2241 72.0688 91.6238 71.6398L87.3347 68.5739C87.1921 68.4682 87.0895 68.3176 87.0436 68.1465C86.9976 67.9754 87.011 67.7938 87.0815 67.6312Z" fill="#E98862"/>
<g opacity="0.25">
<path d="M91.9947 66.4098C91.9843 66.4241 91.9687 66.4338 91.9512 66.4368C91.9337 66.4398 91.9158 66.4358 91.9012 66.4257L89.2024 64.5618C89.1951 64.5568 89.1888 64.5503 89.184 64.5428C89.1791 64.5353 89.1758 64.527 89.1742 64.5182C89.1726 64.5095 89.1728 64.5005 89.1747 64.4918C89.1766 64.4831 89.1802 64.4749 89.1852 64.4676C89.1903 64.4602 89.1968 64.454 89.2043 64.4492C89.2118 64.4444 89.2202 64.4411 89.2289 64.4395C89.2377 64.4379 89.2467 64.438 89.2554 64.4399C89.2642 64.4418 89.2724 64.4454 89.2798 64.4504L91.9785 66.3143C91.9933 66.3246 92.0034 66.3402 92.0067 66.3579C92.0099 66.3756 92.0059 66.3938 91.9957 66.4086L91.9947 66.4098Z" fill="#0C0C0C"/>
</g>
<g opacity="0.25">
<path d="M91.2032 67.6194C91.1927 67.6337 91.1771 67.6434 91.1596 67.6463C91.1421 67.6493 91.1242 67.6452 91.1097 67.6351L88.0977 65.5551C88.083 65.5448 88.0729 65.5291 88.0697 65.5115C88.0666 65.4938 88.0705 65.4756 88.0808 65.4608C88.0914 65.4466 88.1071 65.4369 88.1246 65.4337C88.1422 65.4305 88.1603 65.4341 88.1753 65.4437L91.187 67.5237C91.2018 67.534 91.2119 67.5497 91.2152 67.5674C91.2184 67.5851 91.2144 67.6034 91.2042 67.6182L91.2032 67.6194Z" fill="#0C0C0C"/>
</g>
<g opacity="0.25">
<path d="M90.3534 68.9343C90.343 68.9486 90.3274 68.9582 90.3099 68.9612C90.2925 68.9642 90.2745 68.9602 90.26 68.9501L87.8574 67.2909C87.8425 67.2806 87.8324 67.265 87.8292 67.2473C87.826 67.2296 87.8299 67.2114 87.8402 67.1966C87.8504 67.1819 87.8662 67.1718 87.8839 67.1685C87.9016 67.1653 87.9199 67.1693 87.9347 67.1795L90.3373 68.8388C90.3521 68.849 90.3622 68.8647 90.3654 68.8824C90.3686 68.9 90.3647 68.9182 90.3545 68.933L90.3534 68.9343Z" fill="#0C0C0C"/>
</g>
<path d="M98.1975 67.3915L106.338 81.2167L116.271 68.2248L124.521 75.6408L110.433 93.8341L110.341 93.9636C109.777 94.7337 109.026 95.348 108.158 95.7485C107.29 96.1491 106.334 96.3228 105.381 96.2531C104.427 96.1835 103.507 95.8729 102.707 95.3506C101.907 94.8283 101.253 94.1115 100.808 93.2677L89.2314 72.3637L98.1975 67.3915Z" fill="#18B372"/>
<path d="M107.136 82.8792C107.154 82.8793 107.171 82.8748 107.187 82.8662C107.202 82.8575 107.215 82.8451 107.225 82.83C107.234 82.8149 107.239 82.7977 107.24 82.7801C107.24 82.7624 107.237 82.7448 107.228 82.7291L106.43 81.1697C106.418 81.1453 106.396 81.1269 106.37 81.1185C106.344 81.1102 106.316 81.1124 106.291 81.1249C106.267 81.1374 106.248 81.159 106.24 81.185C106.231 81.2111 106.234 81.2394 106.246 81.2637L107.044 82.8229C107.053 82.8399 107.066 82.8541 107.082 82.864C107.099 82.874 107.117 82.8792 107.136 82.8792Z" fill="#0C0C0C"/>
<path d="M116.845 81.1378L117.093 85.5044L116.887 85.5161L116.638 81.1494L116.845 81.1378Z" fill="#0C0C0C"/>
<path d="M143.076 49.5359C143.076 49.5359 143.457 54.3963 144.575 56.1484C147.794 61.1924 148.775 66.8974 145.646 69.9197C142.517 72.9421 122.337 73.2178 120.728 66.3663C119.374 60.599 122.129 59.9456 122.746 55.167C123.025 53.0052 123.809 48.47 123.809 48.47" fill="#0A0A0A"/>
<path d="M125.866 65.2713C125.9 65.2668 126.287 71.6631 133.739 71.1056C138.898 70.7201 140.737 65.2622 140.856 65.2622C140.299 65.1445 139.363 64.9735 139.116 64.8415C138.303 64.4063 137.298 63.9534 137.036 62.3803C136.885 61.4728 137.141 56.8352 137.063 55.9178L129.144 57.6804C129.254 59.6176 130.029 64.1091 127.314 64.9042C126.863 65.0356 126.376 65.1564 125.866 65.2713Z" fill="#E98862"/>
<path opacity="0.52" d="M129.033 63.0686C129.157 62.67 129.237 62.259 129.271 61.8431C129.358 60.8938 129.341 59.938 129.219 58.9925C130.829 58.7759 132.345 58.1134 133.596 57.0804C133.743 57.622 134.552 59.9885 134.328 60.5027C133.904 61.4755 131.916 63.0686 129.033 63.0686Z" fill="#0C0C0C"/>
<path d="M130.082 61.0554C133.208 61.3204 137.233 60.0287 138.021 55.8734L138.733 52.1241C139.522 47.9688 137.972 44.1873 134.049 43.4468C130.125 42.7064 126.553 45.5215 125.764 49.6767L125.449 51.3366C125.147 52.9309 124.506 60.5823 130.082 61.0554Z" fill="#E98862"/>
<path d="M126.568 51.5175C126.296 51.5175 126.076 51.2979 126.076 51.027C126.076 50.7562 126.296 50.5366 126.568 50.5366C126.839 50.5366 127.059 50.7562 127.059 51.027C127.059 51.2979 126.839 51.5175 126.568 51.5175Z" fill="#0C0C0C"/>
<path d="M131.606 52.1888C131.335 52.1888 131.114 51.9692 131.114 51.6984C131.114 51.4275 131.335 51.2079 131.606 51.2079C131.878 51.2079 132.098 51.4275 132.098 51.6984C132.098 51.9692 131.878 52.1888 131.606 52.1888Z" fill="#0C0C0C"/>
<path opacity="0.52" d="M128.841 55.2949L128.834 55.2937C128.675 55.2626 128.518 55.2227 128.363 55.1743C128.133 55.1002 127.83 54.9779 127.87 54.77C127.915 54.5332 129.05 52.1014 129.179 51.825C129.185 51.8129 129.193 51.8021 129.202 51.7931C129.212 51.784 129.224 51.777 129.236 51.7724C129.248 51.7678 129.262 51.7657 129.275 51.7663C129.288 51.7668 129.301 51.77 129.313 51.7756C129.325 51.7812 129.336 51.7891 129.345 51.7989C129.354 51.8087 129.361 51.8201 129.366 51.8326C129.37 51.8451 129.372 51.8583 129.372 51.8716C129.371 51.8848 129.368 51.8978 129.362 51.9098C128.878 52.9455 128.098 54.6479 128.068 54.8073C128.094 54.8814 128.477 55.0216 128.871 55.0961C128.897 55.1006 128.92 55.115 128.936 55.1363C128.951 55.1575 128.957 55.184 128.954 55.2099C128.95 55.2358 128.936 55.2592 128.915 55.275C128.894 55.2909 128.868 55.2979 128.841 55.2947V55.2949Z" fill="#0C0C0C"/>
<path opacity="0.52" d="M129.422 57.0878C128.782 57.005 128.171 56.7734 127.637 56.4115C127.615 56.397 127.599 56.3742 127.593 56.3481C127.588 56.322 127.593 56.2948 127.608 56.2725C127.622 56.2502 127.645 56.2346 127.671 56.2291C127.697 56.2236 127.725 56.2287 127.747 56.2432C128.902 56.9936 130.05 57.115 131.066 56.5939C131.086 56.5827 131.107 56.5727 131.129 56.5637C131.154 56.5547 131.182 56.556 131.206 56.5673C131.23 56.5786 131.249 56.5991 131.258 56.6242C131.267 56.6493 131.266 56.6769 131.255 56.701C131.243 56.7252 131.223 56.7438 131.198 56.7529C131.19 56.7562 131.177 56.7632 131.158 56.7735C130.624 57.0482 130.019 57.1576 129.422 57.0878Z" fill="#0C0C0C"/>
<path d="M141.872 53.4306L138.355 52.7878C135.691 51.7128 134.885 47.1147 134.885 47.1147C134.885 47.1147 131.65 50.2594 123.809 48.4708C123.809 48.4708 125.381 37.5669 136.965 40.7365C140.7 41.7589 143.381 45.5122 143.047 50.5283C142.813 54.0446 141.872 53.4306 141.872 53.4306Z" fill="#0A0A0A"/>
<path d="M137.537 57.0934C138.729 57.3184 139.938 56.2288 140.164 55.0398C140.391 53.8508 139.547 53.0128 138.355 52.7878L137.59 53.4684L136.513 56.8999L137.537 57.0934Z" fill="#E98862"/>
<path d="M128.46 49.8368C128.113 49.6127 127.711 49.4862 127.297 49.4705C127.093 49.4613 126.89 49.4828 126.692 49.5342C126.497 49.5842 126.309 49.6585 126.132 49.7555C126.107 49.7677 126.088 49.7893 126.079 49.8155C126.07 49.8417 126.072 49.8703 126.084 49.8953C126.096 49.9202 126.117 49.9394 126.143 49.9487C126.17 49.9579 126.198 49.9565 126.223 49.9446L126.231 49.9411C126.394 49.8611 126.567 49.8019 126.745 49.7648C126.921 49.7271 127.102 49.7163 127.281 49.7326C127.637 49.7623 127.979 49.8853 128.271 50.0892L128.281 50.0962C128.298 50.1084 128.317 50.1172 128.337 50.122C128.357 50.1269 128.378 50.1277 128.399 50.1245C128.419 50.1212 128.439 50.114 128.457 50.1032C128.474 50.0923 128.49 50.0781 128.502 50.0614C128.514 50.0446 128.523 50.0256 128.528 50.0055C128.533 49.9853 128.533 49.9644 128.53 49.9439C128.527 49.9235 128.52 49.9038 128.509 49.8861C128.498 49.8685 128.484 49.8531 128.467 49.8409L128.46 49.8368Z" fill="#0C0C0C"/>
<path d="M131.597 50.5731C131.944 50.4883 132.307 50.4967 132.649 50.5972C132.823 50.6466 132.987 50.7218 133.138 50.8202C133.291 50.9192 133.43 51.037 133.553 51.1708L133.559 51.1764C133.578 51.1956 133.604 51.2067 133.632 51.2072C133.659 51.2077 133.685 51.1976 133.705 51.179C133.725 51.1604 133.737 51.1348 133.739 51.1076C133.74 51.0804 133.731 51.0537 133.713 51.0332C133.583 50.8791 133.435 50.742 133.27 50.6251C133.105 50.506 132.923 50.4125 132.73 50.3477C132.338 50.2134 131.918 50.1867 131.512 50.2701C131.471 50.2789 131.435 50.3037 131.412 50.3389C131.389 50.3741 131.382 50.417 131.39 50.458C131.399 50.499 131.424 50.5349 131.459 50.5577C131.495 50.5804 131.538 50.5883 131.579 50.5795L131.585 50.5778L131.597 50.5731Z" fill="#0C0C0C"/>
<path opacity="0.52" d="M129.286 58.0314C129.17 58.0182 129.056 57.9952 128.944 57.9627C128.918 57.9554 128.896 57.9381 128.883 57.9148C128.87 57.8915 128.867 57.864 128.874 57.8384C128.882 57.8127 128.899 57.7911 128.922 57.7782C128.946 57.7652 128.973 57.7621 128.999 57.7695C129.674 57.9631 130.057 57.7076 130.073 57.6956C130.095 57.6803 130.122 57.6743 130.148 57.679C130.175 57.6836 130.198 57.6985 130.214 57.7204C130.229 57.7423 130.235 57.7693 130.23 57.7956C130.226 57.8219 130.211 57.8453 130.189 57.8606C129.917 58.0199 129.598 58.0802 129.286 58.0314Z" fill="#0C0C0C"/>
<path d="M138.347 52.7432L138.382 52.6461C133.925 51.051 135.015 46.6903 135.027 46.6463L134.927 46.6201C134.915 46.6649 133.8 51.1157 138.347 52.7432Z" fill="#0C0C0C"/>
<path opacity="0.1" d="M132.02 55.5838C131.505 55.5286 131.121 55.1788 131.162 54.8026C131.202 54.4263 131.652 54.1661 132.167 54.2213C132.681 54.2765 133.065 54.6263 133.024 55.0025C132.984 55.3788 132.534 55.639 132.02 55.5838Z" fill="#0C0C0C"/>
<path opacity="0.1" d="M126.557 54.1606C126.516 54.5363 126.066 54.7962 125.551 54.7418C125.462 54.7321 125.375 54.7133 125.29 54.6857C125.261 54.2385 125.254 53.8083 125.263 53.4096C125.405 53.3724 125.553 53.362 125.699 53.3791C126.214 53.4333 126.598 53.7831 126.557 54.1606Z" fill="#0C0C0C"/>
<path d="M116.607 79.3532C116.842 82.1029 117.984 99.2582 118.209 102.645H148.07C148.246 99.5904 150.276 86.2328 150.942 80.2593C151.578 74.559 152.826 71.7052 151.912 70.0199C150.417 67.2657 146.333 65.6741 143.548 65.2981C141.847 65.0688 139.29 64.9042 139.29 64.9042C139.29 64.9042 139.073 69.2725 133.909 69.5157C126.88 69.8457 127.349 64.9042 127.315 64.9042C126.176 64.9042 119.67 65.623 118.079 66.5636C113.743 69.1246 116.109 73.5272 116.607 79.3532Z" fill="#18B372"/>
<path d="M97.2241 81.2742L100.103 95.2244C100.161 95.5077 100.315 95.7625 100.538 95.9464C100.762 96.1304 101.042 96.2322 101.332 96.235L121.153 96.4033C121.342 96.4049 121.529 96.3643 121.7 96.2845C121.871 96.2047 122.023 96.0877 122.143 95.942C122.263 95.7964 122.349 95.6258 122.394 95.4428C122.44 95.2598 122.443 95.069 122.405 94.8843L119.527 80.9337C119.468 80.6505 119.314 80.3958 119.09 80.2121C118.866 80.0284 118.586 79.9268 118.296 79.9243L98.4757 79.756C98.2868 79.7546 98.1 79.7953 97.9289 79.8752C97.7577 79.955 97.6067 80.0719 97.4867 80.2175C97.3668 80.363 97.2809 80.5334 97.2355 80.7162C97.1901 80.8991 97.1862 81.0897 97.2241 81.2742Z" fill="#292A2E"/>
<path d="M115.706 91.1834C115.695 91.3671 115.752 91.5484 115.865 91.6939C115.978 91.8394 116.139 91.9394 116.32 91.9754L116.931 92.1094C116.92 92.113 116.91 92.1192 116.902 92.1275C116.894 92.1358 116.888 92.1459 116.885 92.1569C116.884 92.1698 116.886 92.1829 116.893 92.194C116.747 92.2351 116.616 92.3208 116.521 92.439C116.425 92.5573 116.369 92.7023 116.36 92.854C116.359 93.0308 116.418 93.2026 116.527 93.3419C116.636 93.4811 116.789 93.5795 116.962 93.6212L122.114 94.7618C122.377 94.8208 122.646 94.8505 122.916 94.8505C123.518 94.8504 124.11 94.7045 124.642 94.4253C125.174 94.1461 125.631 93.742 125.971 93.2479C126.333 92.7252 126.475 92.0825 126.368 91.4565C126.262 90.8306 125.915 90.2709 125.4 89.8964L121.018 86.7016C120.921 86.6312 120.809 86.5852 120.691 86.5676L121.094 88.5207L120.987 88.496L120.964 88.4919L117.603 87.8092C117.228 87.7267 116.715 87.8628 116.649 88.2877C116.614 88.4503 116.634 88.6202 116.708 88.7696C116.782 88.919 116.904 89.0392 117.055 89.1106C117.053 89.1127 117.048 89.1147 117.048 89.1188C117.048 89.123 117.05 89.125 117.05 89.1292L116.469 89.0013C116.363 88.9778 116.253 88.9781 116.146 89.0022C116.04 89.0263 115.941 89.0736 115.855 89.1406C115.769 89.2077 115.7 89.2929 115.651 89.3901C115.602 89.4872 115.576 89.5939 115.574 89.7025C115.574 89.8759 115.634 90.0439 115.744 90.1781C115.854 90.3123 116.007 90.4044 116.178 90.4388L116.428 90.4945C116.43 90.5028 116.428 90.511 116.432 90.5172C116.25 90.5186 116.074 90.5875 115.94 90.7106C115.806 90.8338 115.723 91.0023 115.706 91.1834Z" fill="#E98862"/>
<g opacity="0.25">
<path d="M120.396 89.8063C120.392 89.8235 120.382 89.8385 120.367 89.8481C120.352 89.8576 120.334 89.861 120.316 89.8574L117.101 89.1997C117.092 89.1979 117.083 89.1944 117.076 89.1894C117.069 89.1845 117.062 89.1781 117.057 89.1707C117.053 89.1632 117.049 89.1549 117.048 89.1462C117.046 89.1375 117.046 89.1285 117.048 89.1198C117.049 89.1111 117.053 89.1028 117.058 89.0954C117.063 89.0881 117.069 89.0818 117.077 89.0769C117.084 89.072 117.093 89.0686 117.101 89.0669C117.11 89.0652 117.119 89.0653 117.128 89.0671L120.344 89.7246C120.361 89.7282 120.377 89.7387 120.387 89.7537C120.397 89.7687 120.4 89.787 120.397 89.8046L120.396 89.8063Z" fill="#0C0C0C"/>
</g>
<g opacity="0.25">
<path d="M120.145 91.2286C120.141 91.2458 120.13 91.2607 120.115 91.2703C120.1 91.2798 120.082 91.2832 120.065 91.2797L116.476 90.5459C116.458 90.5422 116.443 90.5317 116.433 90.5167C116.423 90.5017 116.419 90.4835 116.423 90.4658C116.427 90.4486 116.438 90.4335 116.452 90.4237C116.467 90.4139 116.485 90.4101 116.503 90.4131L120.092 91.1471C120.101 91.1489 120.109 91.1523 120.117 91.1573C120.124 91.1623 120.131 91.1686 120.135 91.1761C120.14 91.1835 120.144 91.1918 120.145 91.2005C120.147 91.2092 120.147 91.2182 120.145 91.2269L120.145 91.2286Z" fill="#0C0C0C"/>
</g>
<g opacity="0.25">
<path d="M119.881 92.77C119.877 92.7873 119.866 92.8022 119.851 92.8118C119.836 92.8213 119.818 92.8247 119.801 92.8212L116.938 92.2357C116.929 92.2339 116.921 92.2304 116.914 92.2254C116.906 92.2204 116.9 92.214 116.895 92.2066C116.89 92.1992 116.887 92.1909 116.885 92.1822C116.883 92.1734 116.884 92.1644 116.885 92.1557C116.887 92.147 116.891 92.1388 116.896 92.1314C116.901 92.124 116.907 92.1177 116.914 92.1128C116.922 92.1079 116.93 92.1046 116.939 92.1029C116.948 92.1012 116.957 92.1013 116.965 92.103L119.828 92.6884C119.846 92.692 119.861 92.7025 119.871 92.7175C119.881 92.7325 119.885 92.7508 119.881 92.7684L119.881 92.77Z" fill="#0C0C0C"/>
</g>
<path d="M122.433 96.7945L150.385 101.832C151.258 101.926 152.14 101.818 152.963 101.515C153.786 101.213 154.528 100.724 155.13 100.088C155.732 99.4512 156.178 98.6844 156.433 97.8473C156.687 97.0102 156.744 96.1257 156.599 95.263L152.687 72.069C152.564 71.3352 152.296 70.6329 151.901 70.0021C151.505 69.3712 150.989 68.8243 150.381 68.3926C149.774 67.9609 149.087 67.6528 148.36 67.4859C147.633 67.319 146.88 67.2967 146.144 67.4201C145.408 67.5435 144.704 67.8103 144.072 68.2053C143.439 68.6002 142.891 69.1155 142.459 69.7217C142.026 70.3279 141.718 71.0132 141.551 71.7384C141.384 72.4635 141.362 73.2143 141.487 73.9479L144.155 89.9146L123.662 87.3482L122.433 96.7945Z" fill="#18B372"/>
<path d="M150.386 101.935C150.412 101.935 150.436 101.925 150.455 101.908C150.474 101.89 150.486 101.866 150.488 101.841C150.491 101.815 150.483 101.79 150.468 101.769C150.452 101.749 150.429 101.735 150.404 101.73L122.548 96.7106L123.751 87.4633L144.142 90.0169C144.158 90.019 144.174 90.0173 144.19 90.012C144.205 90.0066 144.219 89.9978 144.23 89.9861C144.241 89.9745 144.249 89.9605 144.254 89.9451C144.259 89.9298 144.26 89.9135 144.257 89.8976L142.561 79.6929C142.559 79.6795 142.554 79.6666 142.547 79.6551C142.54 79.6435 142.531 79.6335 142.52 79.6256C142.508 79.6177 142.496 79.6121 142.483 79.6091C142.469 79.6061 142.456 79.6058 142.442 79.6082C142.429 79.6104 142.416 79.6152 142.404 79.6223C142.393 79.6295 142.383 79.6388 142.375 79.6499C142.367 79.6609 142.361 79.6733 142.358 79.6865C142.355 79.6997 142.355 79.7134 142.357 79.7268L144.031 89.7949L123.675 87.2457C123.648 87.2423 123.62 87.2498 123.599 87.2665C123.577 87.2832 123.563 87.3078 123.559 87.3348L122.33 96.7809C122.327 96.8072 122.334 96.8337 122.349 96.855C122.365 96.8764 122.388 96.8909 122.415 96.8956L150.367 101.933C150.373 101.934 150.379 101.935 150.386 101.935Z" fill="#0C0C0C"/>
<path d="M144.171 89.8129L145.969 90.0999L145.936 90.3038L144.138 90.0167L144.171 89.8129Z" fill="#0C0C0C"/>
<path d="M4.80766 114.107H65.98C68.521 114.107 70.5808 116.161 70.5808 118.695V139.58C70.5808 142.114 68.521 144.168 65.98 144.168H4.80766C2.26668 144.168 0.20681 142.114 0.20681 139.58V118.695C0.20681 116.161 2.26668 114.107 4.80766 114.107Z" fill="white"/>
<path opacity="0.4" d="M4.80766 114.107H65.98C68.521 114.107 70.5808 116.161 70.5808 118.695V139.58C70.5808 142.114 68.521 144.168 65.98 144.168H4.80766C2.26668 144.168 0.20681 142.114 0.20681 139.58V118.695C0.20681 116.161 2.26668 114.107 4.80766 114.107Z" fill="#18B372"/>
<path d="M4.80767 144.373H65.98C67.2546 144.372 68.4766 143.866 69.3779 142.967C70.2792 142.069 70.7862 140.85 70.7877 139.579V118.695C70.7862 117.424 70.2792 116.206 69.3779 115.307C68.4766 114.408 67.2546 113.903 65.98 113.901H4.80767C3.53305 113.903 2.31106 114.408 1.40976 115.307C0.50847 116.206 0.00147034 117.424 -7.6702e-06 118.695V139.58C0.00168925 140.851 0.508784 142.069 1.41005 142.968C2.31132 143.866 3.53319 144.372 4.80767 144.373ZM65.98 114.313C67.1451 114.314 68.2621 114.776 69.0859 115.598C69.9096 116.42 70.3729 117.534 70.374 118.695V139.58C70.3725 140.741 69.909 141.855 69.0853 142.676C68.2615 143.497 67.1448 143.959 65.98 143.961H4.80767C3.64271 143.959 2.52584 143.497 1.70209 142.676C0.878339 141.854 0.414976 140.741 0.413663 139.579V118.695C0.414976 117.534 0.878339 116.42 1.70209 115.599C2.52584 114.777 3.64271 114.315 4.80767 114.314L65.98 114.313Z" fill="#292A2E"/>
<path d="M64.2703 137.763C64.326 137.763 64.3807 137.748 64.4286 137.719C64.4765 137.691 64.5159 137.65 64.5426 137.602C64.5693 137.553 64.5824 137.498 64.5804 137.442C64.5784 137.387 64.5614 137.333 64.5313 137.286C64.4641 137.183 57.7035 126.875 46.9596 126.875C41.3457 126.875 37.9443 129.035 34.6546 131.124C31.6098 133.057 28.7335 134.884 24.2831 134.884C15.1838 134.884 7.85353 121.707 7.78072 121.574C7.74126 121.502 7.6747 121.448 7.59573 121.425C7.51675 121.402 7.43182 121.411 7.35961 121.45C7.28739 121.49 7.23381 121.556 7.21065 121.635C7.1875 121.714 7.19666 121.798 7.23613 121.87C7.54121 122.427 14.8193 135.503 24.2831 135.503C28.9143 135.503 31.8646 133.63 34.988 131.646C38.2026 129.605 41.5265 127.494 46.9596 127.494C57.3601 127.494 63.9437 137.52 64.009 137.621C64.0372 137.664 64.0759 137.7 64.1215 137.725C64.1671 137.75 64.2183 137.763 64.2703 137.763Z" fill="white"/>
<path d="M7.42144 122.933C6.7509 122.933 6.20732 122.391 6.20732 121.722C6.20732 121.054 6.7509 120.512 7.42144 120.512C8.09198 120.512 8.63556 121.054 8.63556 121.722C8.63556 122.391 8.09198 122.933 7.42144 122.933Z" fill="white"/>
</g>
<defs>
<clipPath id="clip0_302_289">
<rect width="199" height="199" fill="white" transform="matrix(-1 0 0 1 199 0)"/>
</clipPath>
</defs>
</svg>
