<svg width="196" height="183" viewBox="0 0 196 183" fill="none" xmlns="http://www.w3.org/2000/svg">
<g clip-path="url(#clip0_302_457)">
<path d="M159.865 11.6883H116.366V62.2721H159.865V11.6883Z" fill="#F3F5FD"/>
<path d="M135.454 48.7861H122.31C119.245 48.7861 119.961 46.492 119.961 43.6623V39.2462C119.961 36.177 120.84 33.1623 122.508 30.5078C124.176 27.8532 126.574 25.6531 129.46 24.1303L129.539 24.0884C130.054 23.8167 130.637 23.6747 131.23 23.6765C131.823 23.6783 132.405 23.8239 132.918 24.0988C133.431 24.3737 133.857 24.7681 134.153 25.2427C134.449 25.7173 134.604 26.2553 134.604 26.803V43.6604C134.604 46.4912 135.32 48.7842 132.256 48.7842L135.454 48.7861Z" fill="#D7E8F4"/>
<path d="M139.787 48.7861H152.931C155.996 48.7861 155.28 46.492 155.28 43.6623V39.2462C155.279 36.1773 154.401 33.163 152.733 30.5088C151.065 27.8546 148.667 25.6548 145.781 24.1322L145.702 24.0903C145.187 23.8186 144.604 23.6766 144.011 23.6784C143.418 23.6802 142.836 23.8258 142.323 24.1007C141.81 24.3756 141.384 24.77 141.088 25.2446C140.793 25.7192 140.637 26.2572 140.637 26.8049V43.6623C140.637 46.4931 139.921 48.7861 142.986 48.7861H139.787Z" fill="#D7E8F4"/>
<path d="M145.848 36.3123C145.617 36.525 145.304 36.6445 144.978 36.6445C144.652 36.6445 144.339 36.525 144.108 36.3123L139.386 31.951C138.917 31.5191 138.282 31.2765 137.62 31.2765C136.959 31.2765 136.324 31.5191 135.855 31.951L131.132 36.3123C131.018 36.4178 130.883 36.5015 130.733 36.5586C130.584 36.6157 130.424 36.6451 130.263 36.6452C130.101 36.6452 129.941 36.6158 129.792 36.5587C129.643 36.5017 129.507 36.418 129.393 36.3125C129.279 36.207 129.188 36.0818 129.126 35.944C129.064 35.8062 129.032 35.6584 129.032 35.5093C129.032 35.3601 129.064 35.2123 129.126 35.0745C129.188 34.9367 129.278 34.8114 129.393 34.7059L135.659 28.919C135.891 28.7054 136.076 28.4513 136.201 28.1714C136.327 27.8915 136.391 27.5914 136.39 27.2884V21.3814C136.387 21.2305 136.417 21.0806 136.477 20.9403C136.537 20.8001 136.628 20.6724 136.742 20.5647C136.857 20.457 136.993 20.3715 137.144 20.3131C137.295 20.2547 137.456 20.2246 137.62 20.2246C137.783 20.2246 137.945 20.2547 138.096 20.3131C138.247 20.3715 138.383 20.457 138.498 20.5647C138.612 20.6724 138.702 20.8001 138.763 20.9403C138.823 21.0806 138.853 21.2305 138.85 21.3814V27.2892C138.849 27.592 138.913 27.8919 139.039 28.1717C139.164 28.4514 139.349 28.7054 139.581 28.919L145.848 34.7059C145.962 34.8114 146.052 34.9366 146.114 35.0744C146.176 35.2122 146.208 35.3599 146.208 35.5091C146.208 35.6583 146.176 35.806 146.114 35.9439C146.052 36.0817 145.962 36.2069 145.848 36.3123Z" fill="#D7E8F4"/>
<path d="M48.7115 37.61H14.3898V77.5216H48.7115V37.61Z" fill="#F3F5FD"/>
<path d="M27.1084 66.1401C28.8159 66.1401 30.2001 65.2905 30.2001 64.2424C30.2001 63.1942 28.8159 62.3446 27.1084 62.3446C25.4008 62.3446 24.0166 63.1942 24.0166 64.2424C24.0166 65.2905 25.4008 66.1401 27.1084 66.1401Z" fill="#C1D8ED"/>
<path d="M20.2594 67.4525C17.2175 66.4681 14.4989 49.3635 22.5481 47.7658C30.5974 46.1681 42.4299 44.6912 44.6691 45.5767C46.9083 46.4621 44.8849 54.69 36.8888 58.9978C28.4795 63.5282 23.9589 68.6501 20.2594 67.4525Z" fill="#D7E8F4"/>
<path d="M34.3291 182.429L173.835 182.429V109.582L34.3291 109.582V182.429Z" fill="#F3F5FD"/>
<path d="M34.3291 109.583H2.89478V182.43H34.3291V109.583Z" fill="#C1D8ED"/>
<path d="M30.78 109.583L177.384 109.583V104.499L30.78 104.499V109.583Z" fill="#C1D8ED"/>
<path d="M3.05176e-05 109.583H30.78V104.499H3.05176e-05V109.583Z" fill="#C1D8ED"/>
<path opacity="0.08" d="M3.05176e-05 109.583H30.78V104.499H3.05176e-05V109.583Z" fill="#18B372"/>
<path d="M34.3291 163.669L173.835 163.669V128.343H34.3291V163.669Z" fill="#DEE8F5"/>
<path d="M104.082 160.783C112.918 160.783 120.082 154.167 120.082 146.006C120.082 137.845 112.918 131.229 104.082 131.229C95.2452 131.229 88.0818 137.845 88.0818 146.006C88.0818 154.167 95.2452 160.783 104.082 160.783Z" fill="#FAFAFA"/>
<path d="M92.4376 143.992V148.02H101.901V156.76H106.263V148.02H115.726V143.992H106.263V135.252H101.901V143.992H92.4376Z" fill="#FD5D76"/>
<path opacity="0.04" d="M155.352 78.1444C155.352 78.1444 170.087 82.813 188.661 80.0625L188.192 75.6876L155.352 78.1444Z" fill="#18B372"/>
<path d="M72.477 178.916L63.9541 177.98C64.3379 175.001 64.7715 171.423 64.8009 170.836C64.7989 170.874 64.8009 170.904 64.8009 170.929H73.3835C73.3819 171.166 73.3819 171.888 72.477 178.916Z" fill="#E98862"/>
<path d="M38.2791 179.864L29.6965 179.838C29.6965 179.838 29.7251 171.653 29.7251 170.93H38.3077C38.3077 171.656 38.2791 179.864 38.2791 179.864Z" fill="#E98862"/>
<path d="M70.2447 123.156C67.4448 106.045 65.9571 86.955 62.4338 69.9606L62.3246 69.9904L62.005 67.9787L30.9128 66.2047L27.4642 176.277L42.5745 176.825L48.1102 87.9443C49.8623 95.9967 51.1869 104.157 52.8037 112.222C57.104 133.334 58.61 155.569 60.5546 176.937L75.6121 175.651C73.3941 158.305 72.1084 140.532 70.2447 123.156Z" fill="#262626"/>
<path opacity="0.04" d="M30.3982 82.6314C30.3982 82.6314 63.954 81.0703 63.954 77.719C63.954 70.0074 30.5862 76.7214 30.5862 76.7214L30.3982 82.6314Z" fill="#18B372"/>
<path d="M48.7123 182.929C48.9431 182.928 49.1712 182.884 49.3824 182.797C49.5936 182.711 49.7833 182.586 49.9397 182.429C50.096 182.272 50.2157 182.088 50.2912 181.886C50.3667 181.685 50.3965 181.471 50.3785 181.258C50.3536 180.964 50.2381 180.682 50.0455 180.446C49.853 180.21 49.5915 180.03 49.2918 179.926L39.3021 176.836C39.1086 176.777 38.9035 176.757 38.7009 176.778C38.4983 176.799 38.303 176.86 38.1283 176.957C36.7549 177.837 35.1121 178.287 33.4414 178.24C32.1401 178.155 30.8911 177.733 29.8367 177.024C29.744 176.954 29.6317 176.91 29.5127 176.896C29.3938 176.883 29.2732 176.901 29.165 176.948C29.0568 176.996 28.9654 177.071 28.9015 177.164C28.8375 177.258 28.8037 177.366 28.804 177.477V181.988C28.804 182.121 28.8324 182.253 28.8877 182.376C28.9429 182.499 29.0239 182.61 29.126 182.704C29.228 182.798 29.3492 182.872 29.4824 182.923C29.6157 182.974 29.7585 182.999 29.9025 182.999L48.7123 182.929Z" fill="#C1D8ED"/>
<path d="M82.9338 182.929C83.1646 182.928 83.3927 182.884 83.6039 182.797C83.8151 182.711 84.0048 182.586 84.1611 182.429C84.3174 182.272 84.4371 182.088 84.5125 181.886C84.588 181.685 84.6177 181.471 84.5997 181.258C84.5749 180.964 84.4595 180.682 84.267 180.446C84.0746 180.21 83.8131 180.03 83.5134 179.926L73.5241 176.836C73.3305 176.777 73.1255 176.757 72.9229 176.778C72.7203 176.799 72.525 176.86 72.3503 176.957C70.9769 177.837 69.3341 178.287 67.6634 178.24C66.3621 178.155 65.113 177.734 64.0587 177.024C63.966 176.954 63.8536 176.909 63.7346 176.896C63.6156 176.882 63.4949 176.9 63.3866 176.948C63.2783 176.995 63.1869 177.07 63.1229 177.164C63.059 177.258 63.0252 177.366 63.0255 177.477V181.988C63.0255 182.121 63.054 182.253 63.1093 182.376C63.1645 182.499 63.2456 182.61 63.3477 182.704C63.4498 182.798 63.571 182.873 63.7043 182.923C63.8376 182.974 63.9804 182.999 64.1245 182.999L82.9338 182.929Z" fill="#C1D8ED"/>
<path d="M43.519 20.7654C43.5231 20.6975 43.5231 20.6295 43.5231 20.5616C43.5231 19.8747 43.4945 19.1273 43.421 18.312L44.3446 18.1535L49.9478 17.1948C49.8373 18.5351 49.8605 19.882 50.0169 21.2184C50.0336 21.3693 50.0537 21.5241 50.0786 21.6788C50.0797 21.6928 50.0823 21.7065 50.0864 21.72C50.1191 21.924 50.1558 22.128 50.1967 22.3318C50.2212 22.4639 50.25 22.596 50.2829 22.7281C50.3152 22.898 50.3602 23.0641 50.4092 23.2297C50.4583 23.3954 50.5077 23.5585 50.5645 23.7204C50.6213 23.8824 50.6753 24.0413 50.7407 24.196C50.8599 24.5016 51.0047 24.7982 51.1739 25.083V25.0868C51.4833 25.6454 51.918 26.1368 52.449 26.5282H42.1826C42.8243 25.5061 43.4851 23.7359 43.519 20.7654Z" fill="#E98862"/>
<path opacity="0.15" d="M51.1808 25.0924L45.7562 21.2599L50.0165 21.2191C50.1399 22.5659 50.5348 23.8796 51.1808 25.0924Z" fill="#18B372"/>
<path d="M39.7148 15.2306C40.1668 17.6417 41.5916 19.9252 43.8945 20.7035C46.6287 21.6282 48.6538 21.6909 51.8061 21.6909C56.1076 21.6909 55.9653 17.5477 56.0859 13.3728C56.2085 9.18092 55.8464 4.68444 54.1462 3.22373C50.7528 0.30874 40.793 2.15519 39.5816 7.03176C38.9551 9.55384 39.2845 12.9354 39.7148 15.2306Z" fill="#E98862"/>
<path d="M58.3918 5.64764C58.3918 5.64764 60.1533 5.28416 59.6694 3.66115C59.3498 2.58506 57.8568 2.82398 57.8568 2.82398C57.8568 2.82398 59.2701 2.58506 59.2701 1.44556C59.2701 0.728418 58.673 -0.48846 56.8706 0.206791C54.756 1.02245 52.3447 0.917517 50.5113 0.632925C49.4744 0.423463 48.4219 0.286441 47.3628 0.223021H47.3574C46.1393 0.203344 44.9249 0.353365 43.7552 0.668027C40.4775 1.57389 35.5168 4.28771 36.5712 10.4412C37.7486 17.3084 41.2377 19.9346 42.7731 20.7771C42.8639 20.8276 42.966 20.8584 43.0716 20.8672C43.1772 20.8759 43.2835 20.8624 43.3826 20.8276C43.4817 20.7928 43.571 20.7377 43.6436 20.6663C43.7162 20.595 43.7703 20.5094 43.8018 20.4159C44.2375 19.1288 44.987 15.8903 44.7778 9.21259C54.8529 8.75626 57.7518 8.61774 57.7518 8.61774C57.7518 8.61774 60.1222 8.70002 60.1222 7.09966C60.1222 5.4993 58.3918 5.64764 58.3918 5.64764Z" fill="#0F110F"/>
<path d="M49.9396 13.3732C50.2667 13.3732 50.5318 13.1283 50.5318 12.8263C50.5318 12.5242 50.2667 12.2794 49.9396 12.2794C49.6125 12.2794 49.3474 12.5242 49.3474 12.8263C49.3474 13.1283 49.6125 13.3732 49.9396 13.3732Z" fill="#0F110F"/>
<path d="M54.6117 13.0195C54.9388 13.0195 55.2039 12.7747 55.2039 12.4726C55.2039 12.1706 54.9388 11.9257 54.6117 11.9257C54.2847 11.9257 54.0195 12.1706 54.0195 12.4726C54.0195 12.7747 54.2847 13.0195 54.6117 13.0195Z" fill="#0F110F"/>
<path d="M55.6375 11.3071H55.6343L54.0653 11.289C53.9934 11.286 53.9255 11.2574 53.8759 11.2092C53.8263 11.161 53.7988 11.097 53.7993 11.0305C53.7998 10.964 53.8282 10.9002 53.8784 10.8527C53.9287 10.8051 53.997 10.7773 54.069 10.7753H54.0722L55.6412 10.7934C55.7131 10.7963 55.781 10.8249 55.8306 10.8731C55.8802 10.9213 55.9077 10.9854 55.9072 11.0519C55.9067 11.1183 55.8784 11.1821 55.8281 11.2297C55.7778 11.2773 55.7095 11.305 55.6375 11.3071Z" fill="#0F110F"/>
<path d="M48.6612 11.8351C48.5929 11.8353 48.5269 11.8124 48.4758 11.7706C48.4247 11.7288 48.3921 11.6711 48.3841 11.6085C48.3761 11.5458 48.3934 11.4827 48.4326 11.4311C48.4718 11.3795 48.5301 11.343 48.5966 11.3286L50.1431 10.9844C50.2149 10.9684 50.2906 10.9795 50.3536 11.0152C50.4166 11.0508 50.4616 11.1081 50.4788 11.1744C50.4961 11.2407 50.4841 11.3106 50.4455 11.3688C50.4069 11.4269 50.3449 11.4685 50.2731 11.4845L48.7266 11.8283C48.7051 11.8328 48.6832 11.8351 48.6612 11.8351Z" fill="#0F110F"/>
<path d="M46.8589 14.1647C46.8906 14.4705 46.8563 14.7792 46.7578 15.0726C46.6593 15.3661 46.4986 15.6386 46.2851 15.8742C46.0716 16.1098 45.8095 16.3039 45.514 16.4452C45.2186 16.5864 44.8957 16.6721 44.5641 16.6971C44.2325 16.7221 43.8988 16.686 43.5825 16.5909C43.2662 16.4957 42.9734 16.3435 42.7213 16.143C42.4693 15.9425 42.2628 15.6977 42.1141 15.4229C41.9653 15.1481 41.8772 14.8487 41.8548 14.5421C41.8221 14.2377 41.8561 13.9302 41.9548 13.6382C42.0535 13.3461 42.2147 13.0753 42.429 12.842C42.6434 12.6087 42.9063 12.4176 43.2023 12.2801C43.4982 12.1426 43.8211 12.0614 44.1517 12.0416C45.9409 11.9895 46.7457 12.8882 46.8589 14.1647Z" fill="#E98862"/>
<g opacity="0.15">
<path d="M52.5682 15.8598C52.5193 15.8598 52.472 15.8436 52.4348 15.8141C52.3977 15.7846 52.3733 15.7438 52.366 15.6991C52.3588 15.6544 52.3691 15.6088 52.3952 15.5705C52.4213 15.5323 52.4614 15.5039 52.5082 15.4906L53.7126 15.151L52.8703 13.4185C52.8589 13.3958 52.8525 13.3713 52.8514 13.3463C52.8503 13.3214 52.8547 13.2965 52.8641 13.2731C52.8735 13.2497 52.8879 13.2282 52.9064 13.21C52.9249 13.1917 52.9471 13.1771 52.9718 13.1668C52.9965 13.1566 53.0231 13.151 53.0501 13.1503C53.0772 13.1496 53.1041 13.1539 53.1293 13.163C53.1546 13.172 53.1776 13.1855 53.1971 13.2028C53.2166 13.2201 53.2322 13.2408 53.243 13.2637L54.1801 15.1913C54.192 15.2157 54.1982 15.2422 54.1981 15.269C54.1981 15.2957 54.1919 15.3222 54.18 15.3465C54.168 15.3709 54.1506 15.3927 54.1289 15.4104C54.1071 15.428 54.0815 15.4413 54.0538 15.4491L52.6283 15.8526C52.6088 15.8578 52.5885 15.8602 52.5682 15.8598Z" fill="#18B372"/>
</g>
<path d="M50.2134 17.1337C50.2134 17.1337 52.3995 17.3465 53.9325 16.8521C53.9325 16.8521 53.9202 18.1814 52.1906 18.3124C50.461 18.4434 50.2134 17.1337 50.2134 17.1337Z" fill="#F8FCFF"/>
<path d="M65.0036 77.0169C63.2904 80.6513 28.7332 81.9807 28.2836 75.5868C27.9976 71.5179 32.2721 60.3724 32.2721 52.4423C32.2721 44.5123 24.372 34.3855 30.809 28.4407C32.6767 26.7158 35.9013 25.6023 39.8329 25.5986C40.1272 27.716 54.0473 27.7236 54.1536 25.6476C54.6849 25.6552 55.0977 25.6627 55.3551 25.6741C68.9156 26.2138 62.9569 40.4661 62.8261 50.9363C62.6667 63.1882 66.7683 73.2723 65.0036 77.0169Z" fill="#262626"/>
<path d="M54.1519 25.6476C54.0457 27.7236 52.8237 30.7771 49.0514 31.0073C44.0245 31.3131 40.1256 27.716 39.8313 25.5986H41.2658C43.0792 25.5986 44.8072 28.3079 46.6581 28.312C48.9027 28.3169 51.2277 25.619 52.818 25.6322C53.3198 25.6371 53.7686 25.642 54.1519 25.6476Z" fill="#18B372"/>
<path d="M52.8744 25.6382C52.7881 27.3216 51.797 29.7973 48.7388 29.9841C44.6629 30.2321 41.5016 27.3156 41.2629 25.5986H41.2727C43.4638 25.5986 46.0226 25.5986 48.2757 25.6076C50.1496 25.6133 51.8117 25.6231 52.8744 25.6382Z" fill="#E98862"/>
<path d="M49.5881 57.4997C49.5881 57.4997 58.4384 58.2452 61.8174 53.5611C61.9035 53.4417 61.9485 53.3012 61.9467 53.1578C61.9448 53.0145 61.8961 52.875 61.807 52.7576C61.7179 52.6402 61.5925 52.5503 61.4472 52.4998C61.3019 52.4493 61.1435 52.4404 60.9927 52.4744C57.8944 53.175 51.455 54.3866 51.567 52.3261L46.6598 53.7226L49.5881 57.4997Z" fill="#E98862"/>
<path d="M25.7044 60.4192C25.0155 60.4193 24.3361 60.2718 23.7194 59.9884C23.1027 59.705 22.5655 59.2933 22.1502 58.7858C21.7348 58.2783 21.4526 57.6887 21.3256 57.0634C21.1986 56.4382 21.2304 55.7942 21.4184 55.1822L25.1191 43.1172L33.6927 45.3604L31.7903 51.5625L49.837 49.775L50.7872 57.9579L26.1801 60.3951C26.0221 60.411 25.8633 60.4191 25.7044 60.4192Z" fill="#18B372"/>
<path d="M68.5074 59.0755C68.284 59.0756 68.0609 59.0601 67.84 59.0291L40.1305 55.1554L41.4641 47.0185L61.7292 49.8493L59.2276 43.5596L67.5927 40.722L72.6908 53.54C72.9383 54.1619 73.0196 54.8298 72.9276 55.4869C72.8356 56.144 72.5732 56.7709 72.1625 57.3142C71.7519 57.8576 71.2053 58.3013 70.5691 58.6076C69.9329 58.9139 69.226 59.0738 68.5086 59.0737L68.5074 59.0755Z" fill="#18B372"/>
<path d="M41.2674 48.0485C41.2674 48.0485 36.585 47.7428 34.7725 51.2432L40.9437 50.7265L41.2674 48.0485Z" fill="#E98862"/>
<path d="M28.594 31.7868L25.1189 43.1173L33.6928 45.3602L37.1679 34.0297L28.594 31.7868Z" fill="#262626"/>
<path d="M63.2162 29.6517L54.8486 32.4909L59.2542 43.5648L67.6218 40.7255L63.2162 29.6517Z" fill="#262626"/>
<path d="M40.1092 25.5706L39.2332 25.61L39.7211 34.8807L40.5971 34.8414L40.1092 25.5706Z" fill="white"/>
<path d="M54.091 31.512L53.7232 25.6152L52.8212 25.6329L53.1012 31.521C52.0641 31.6411 51.1101 32.1063 50.4179 32.8295C49.7258 33.5527 49.3429 34.4842 49.3412 35.4495V40.1894H50.3315V35.4499C50.3315 34.6416 50.6791 33.8665 51.2979 33.295C51.9168 32.7234 52.7561 32.4024 53.6313 32.4024C54.5064 32.4024 55.3457 32.7234 55.9646 33.295C56.5834 33.8665 56.9311 34.6416 56.9311 35.4499V40.1898H57.9209V35.4499C57.9196 34.4731 57.528 33.5312 56.8213 32.8046C56.1146 32.0779 55.1424 31.6177 54.091 31.512Z" fill="white"/>
<path d="M40.1292 37.3363C41.1892 37.3363 42.0484 36.5428 42.0484 35.5638C42.0484 34.5849 41.1892 33.7914 40.1292 33.7914C39.0692 33.7914 38.21 34.5849 38.21 35.5638C38.21 36.5428 39.0692 37.3363 40.1292 37.3363Z" fill="white"/>
<path d="M49.8243 40.9745C50.2935 40.9745 50.674 40.6232 50.674 40.1898C50.674 39.7564 50.2935 39.4051 49.8243 39.4051C49.355 39.4051 48.9746 39.7564 48.9746 40.1898C48.9746 40.6232 49.355 40.9745 49.8243 40.9745Z" fill="white"/>
<path d="M57.3958 40.9745C57.8651 40.9745 58.2455 40.6232 58.2455 40.1898C58.2455 39.7564 57.8651 39.4051 57.3958 39.4051C56.9266 39.4051 56.5461 39.7564 56.5461 40.1898C56.5461 40.6232 56.9266 40.9745 57.3958 40.9745Z" fill="white"/>
<path d="M146.157 178.916C145.252 171.889 145.252 171.166 145.252 170.929H153.835C153.835 170.904 153.835 170.873 153.835 170.836C153.865 171.423 154.298 175.001 154.681 177.98L146.157 178.916Z" fill="#E98862"/>
<path d="M180.354 179.864C180.354 179.864 180.326 171.656 180.326 170.929H188.908C188.908 171.653 188.937 179.836 188.937 179.836L180.354 179.864Z" fill="#E98862"/>
<path d="M176.081 177.139L191.149 175.963C189.313 150.027 183.634 66.2066 183.634 66.2066L152.542 67.9806L152.222 69.9923L152.113 69.9625C148.468 87.8103 146.916 107.523 143.961 125.497C143.753 142.143 143.696 159.578 142.99 176.177L158.112 176.415C158.064 160.212 158.5 143.259 159.016 127.008C161.595 114.048 163.616 100.484 166.583 87.3977C169.173 114.35 173.35 151.397 176.081 177.139Z" fill="#262626"/>
<path d="M169.921 182.929C169.69 182.928 169.462 182.884 169.251 182.797C169.04 182.711 168.85 182.586 168.694 182.429C168.538 182.272 168.418 182.088 168.342 181.886C168.267 181.685 168.237 181.471 168.255 181.258C168.28 180.964 168.396 180.682 168.588 180.446C168.78 180.21 169.042 180.03 169.342 179.926L179.331 176.836C179.525 176.777 179.73 176.757 179.933 176.778C180.135 176.799 180.33 176.86 180.505 176.957C181.879 177.837 183.521 178.287 185.192 178.24C186.493 178.155 187.742 177.734 188.797 177.024C188.889 176.954 189.002 176.909 189.121 176.896C189.24 176.882 189.36 176.9 189.469 176.948C189.577 176.995 189.669 177.07 189.732 177.164C189.796 177.258 189.83 177.366 189.83 177.477V181.988C189.83 182.121 189.801 182.253 189.746 182.376C189.691 182.499 189.61 182.61 189.508 182.704C189.406 182.798 189.284 182.873 189.151 182.923C189.018 182.974 188.875 182.999 188.731 182.999L169.921 182.929Z" fill="#C1D8ED"/>
<path d="M135.7 182.929C135.469 182.928 135.241 182.883 135.03 182.797C134.818 182.711 134.629 182.586 134.472 182.429C134.316 182.272 134.197 182.087 134.121 181.886C134.046 181.685 134.016 181.471 134.034 181.258C134.059 180.964 134.174 180.682 134.367 180.446C134.559 180.21 134.821 180.03 135.12 179.926L145.11 176.836C145.303 176.777 145.509 176.757 145.711 176.778C145.914 176.799 146.109 176.86 146.284 176.957C147.657 177.837 149.3 178.287 150.97 178.24C152.272 178.155 153.521 177.734 154.576 177.024C154.668 176.954 154.781 176.91 154.9 176.896C155.018 176.883 155.139 176.901 155.247 176.948C155.356 176.996 155.447 177.071 155.511 177.164C155.575 177.258 155.609 177.366 155.608 177.477V181.988C155.608 182.121 155.58 182.253 155.525 182.376C155.469 182.499 155.388 182.61 155.286 182.704C155.184 182.798 155.063 182.873 154.93 182.923C154.796 182.974 154.653 182.999 154.509 182.999L135.7 182.929Z" fill="#C1D8ED"/>
<path d="M115.746 28.3603C114.587 29.5882 115.233 31.7139 118.305 33.4434C122.974 36.0719 124.231 34.8252 125.388 33.5974C126.545 32.3695 122.669 30.8537 119.985 28.2754C119.715 28 119.385 27.7815 119.015 27.6346C118.646 27.4876 118.247 27.4157 117.845 27.4238C117.443 27.4319 117.047 27.5196 116.685 27.6812C116.323 27.8428 116.003 28.0744 115.746 28.3603Z" fill="#E98862"/>
<path d="M102.952 43.2325L119.246 41.971C120.291 41.8901 121.068 41.0418 120.98 40.0762L119.046 18.7688C118.958 17.8033 118.04 17.0862 116.994 17.1671L100.7 18.4286C99.6547 18.5096 98.8783 19.3579 98.9659 20.3234L100.9 41.6308C100.988 42.5964 101.906 43.3135 102.952 43.2325Z" fill="#262626"/>
<path d="M103.286 41.6122L118.623 40.4248C119.114 40.3868 119.479 39.9884 119.438 39.5349L117.621 19.5187C117.58 19.0653 117.148 18.7285 116.657 18.7665L101.32 19.9539C100.829 19.9919 100.465 20.3903 100.506 20.8438L102.323 40.86C102.364 41.3135 102.795 41.6502 103.286 41.6122Z" fill="white"/>
<path d="M125.599 32.9089C125.662 32.9595 119.933 25.6699 118.447 27.0408C117.793 27.6447 119.713 29.7176 119.713 29.7176" fill="#E98862"/>
<path d="M139.505 57.3182C138.822 57.3182 138.149 57.1733 137.536 56.8945C136.924 56.6158 136.389 56.2107 135.973 55.7106L119.18 35.5174L126.246 30.5057L139.271 46.167L143.967 39.7448L151.353 44.3496L143.199 55.5079C142.804 56.0486 142.276 56.4947 141.657 56.8097C141.039 57.1247 140.349 57.2995 139.643 57.3197C139.596 57.3174 139.551 57.3182 139.505 57.3182Z" fill="#18B372"/>
<path d="M149.543 77.0169C151.256 80.6513 185.813 81.9807 186.263 75.5868C186.549 71.5179 182.274 60.3724 182.274 52.4423C182.274 44.5123 190.175 34.3855 183.738 28.4407C181.87 26.7158 178.645 25.6023 174.714 25.5986C174.419 27.716 170.52 31.3131 165.493 31.0073C161.721 30.7771 160.499 27.7236 160.393 25.6476C159.862 25.6552 159.449 25.6627 159.191 25.6741C145.631 26.2138 151.59 40.4661 151.72 50.9363C151.88 63.1882 147.778 73.2723 149.543 77.0169Z" fill="#262626"/>
<path d="M152.08 28.6421L143.967 39.7431L151.353 44.3471L159.466 33.2462L152.08 28.6421Z" fill="#262626"/>
<path d="M173.417 36.5244L152.804 39.2456L156.67 64.2238L177.283 61.5026L173.417 36.5244Z" fill="white"/>
<path d="M170.888 36.858L152.804 39.2453L156.67 64.2235L174.754 61.8362L170.888 36.858Z" fill="#D7E8F4"/>
<path d="M170.888 36.8592L172.514 36.6445L173.109 40.5431L171.487 40.7239L170.888 36.8592Z" fill="#18B372"/>
<path d="M171.999 44.3201L173.625 44.1054L173.109 40.5431L171.486 40.7239L171.999 44.3201Z" fill="#262626"/>
<path d="M160.393 25.6476C160.499 27.7236 161.721 30.7771 165.493 31.0073C170.52 31.3131 174.419 27.716 174.713 25.5986H173.536C171.752 25.5986 169.221 28.3082 167.378 28.312C164.941 28.3173 163.25 25.6186 161.571 25.6341C161.133 25.6382 160.739 25.6427 160.393 25.6476Z" fill="#18B372"/>
<path d="M161.571 25.6397C161.659 27.3741 162.68 29.9252 165.832 30.1177C170.032 30.3732 173.29 27.3676 173.536 25.5986H173.526C169.391 25.5986 163.982 25.605 161.571 25.6397Z" fill="#E98862"/>
<path d="M165.585 50.3185L165.785 50.2675C164.621 49.9361 160.919 48.2614 160.337 49.0952C160.115 49.4122 161.113 50.1188 161.872 50.5944C159.914 51.0303 155.832 50.2407 153.554 49.7263C153.403 49.6924 153.245 49.7013 153.1 49.7518C152.955 49.8024 152.829 49.8922 152.74 50.0095C152.651 50.1269 152.602 50.2663 152.6 50.4097C152.598 50.553 152.643 50.6935 152.729 50.8129C156.108 55.4974 164.958 54.7516 164.958 54.7516L167.887 50.9741L165.585 50.3185Z" fill="#E98862"/>
<path d="M191.545 57.5658C191.481 57.5658 191.416 57.5658 191.351 57.562L164.041 56.4674L164.428 48.2452L184.554 49.051L183.082 45.9896L191.226 42.6511L195.617 51.7818C195.918 52.4083 196.045 53.0944 195.987 53.7779C195.928 54.4613 195.686 55.1204 195.281 55.6953C194.876 56.2701 194.323 56.7424 193.67 57.0694C193.018 57.3963 192.287 57.5675 191.545 57.5673V57.5658Z" fill="#18B372"/>
<path d="M162.464 26.421L162.782 26.455H172.856C172.039 25.2019 171.156 22.7447 171.565 18.1512L165.034 17.034C165.034 17.034 165.77 24.1605 162.464 26.421Z" fill="#E98862"/>
<path opacity="0.15" d="M163.805 24.9328L169.227 21.0991L164.966 21.0613C164.844 22.4074 164.45 23.7204 163.805 24.9328Z" fill="#18B372"/>
<path d="M175.269 15.0709C174.817 17.4824 173.392 19.7656 171.088 20.5439C168.578 21.4639 165.862 21.8027 163.177 21.5309C156.029 20.9896 157.443 5.98021 160.837 3.06409C164.23 0.147959 174.19 1.99479 175.402 6.87136C176.028 9.39419 175.698 12.7757 175.269 15.0709Z" fill="#E98862"/>
<path d="M158.479 3.58306C158.692 3.2704 158.991 3.01522 159.345 2.84327C162.52 1.24933 168.402 0.697886 171.227 1.47844C174.505 2.3843 178.615 4.92185 177.562 11.0749C177.518 11.3342 177.47 11.5837 177.42 11.8298C178.455 11.6664 179.519 11.7693 180.495 12.1272C181.472 12.485 182.322 13.0841 182.954 13.8588C183.586 14.6334 183.975 15.5537 184.078 16.5189C184.181 17.4841 183.995 18.4569 183.54 19.3308C183.084 20.2047 182.377 20.9459 181.495 21.4733C180.614 22.0007 179.592 22.2938 178.543 22.3207C177.493 22.3475 176.455 22.107 175.544 21.6255C174.632 21.144 173.881 20.4401 173.374 19.5908C172.888 19.9788 172.363 20.323 171.806 20.6186C171.414 20.8334 171.32 20.6586 171.184 20.2578C170.71 18.8571 170.244 13.3173 170.616 9.29454L162.914 9.04882L161.572 5.52237L160.472 9.04882H157.849C157.497 7.13669 157.134 4.97092 158.479 3.58306Z" fill="#0F110F"/>
<path d="M165.043 13.2135C165.37 13.2135 165.636 12.9687 165.636 12.6666C165.636 12.3646 165.37 12.1197 165.043 12.1197C164.716 12.1197 164.451 12.3646 164.451 12.6666C164.451 12.9687 164.716 13.2135 165.043 13.2135Z" fill="#0F110F"/>
<path d="M160.372 12.8599C160.699 12.8599 160.964 12.615 160.964 12.313C160.964 12.0109 160.699 11.766 160.372 11.766C160.045 11.766 159.779 12.0109 159.779 12.313C159.779 12.615 160.045 12.8599 160.372 12.8599Z" fill="#0F110F"/>
<path d="M159.345 11.1474H159.349L160.918 11.1293C160.992 11.1288 161.062 11.1013 161.114 11.0528C161.166 11.0043 161.195 10.9387 161.194 10.8706C161.194 10.8024 161.164 10.7372 161.112 10.6893C161.059 10.6414 160.988 10.6148 160.914 10.6152H160.911L159.342 10.6337C159.27 10.6367 159.202 10.6652 159.152 10.7134C159.103 10.7616 159.075 10.8257 159.076 10.8922C159.076 10.9587 159.105 11.0224 159.155 11.07C159.205 11.1176 159.273 11.1453 159.345 11.1474Z" fill="#0F110F"/>
<path d="M166.322 11.6758C166.39 11.6757 166.455 11.6525 166.506 11.6106C166.557 11.5688 166.59 11.5112 166.597 11.4488C166.605 11.3864 166.588 11.3234 166.549 11.2719C166.511 11.2203 166.453 11.1837 166.386 11.1689L164.84 10.8251C164.803 10.8141 164.765 10.8102 164.727 10.8136C164.688 10.817 164.651 10.8277 164.618 10.845C164.584 10.8623 164.555 10.8859 164.532 10.9141C164.509 10.9424 164.492 10.9748 164.483 11.0092C164.474 11.0437 164.473 11.0795 164.48 11.1144C164.486 11.1494 164.501 11.1826 164.522 11.2121C164.543 11.2416 164.571 11.2667 164.603 11.2858C164.636 11.305 164.672 11.3177 164.71 11.3233L166.256 11.6671C166.278 11.6722 166.3 11.6752 166.322 11.6758Z" fill="#0F110F"/>
<path d="M168.124 14.0031C168.08 14.611 168.296 15.2106 168.727 15.6722C169.157 16.1339 169.767 16.4205 170.425 16.4701C171.082 16.5197 171.734 16.3283 172.24 15.9373C172.746 15.5463 173.065 14.9871 173.128 14.3806C173.161 14.0761 173.127 13.7687 173.028 13.4766C172.93 13.1845 172.768 12.9138 172.554 12.6805C172.34 12.4472 172.077 12.2561 171.781 12.1187C171.485 11.9812 171.162 11.9002 170.831 11.8804C169.042 11.8298 168.237 12.7289 168.124 14.0031Z" fill="#E98862"/>
<g opacity="0.15">
<path d="M162.415 15.7016C162.464 15.7017 162.511 15.6855 162.548 15.656C162.586 15.6265 162.61 15.5857 162.617 15.541C162.625 15.4963 162.614 15.4506 162.588 15.4124C162.562 15.3741 162.522 15.3458 162.475 15.3325L161.271 14.9909L162.113 13.2581C162.136 13.2124 162.137 13.1604 162.118 13.1136C162.099 13.0668 162.06 13.0291 162.01 13.0086C161.961 12.9881 161.905 12.9866 161.854 13.0045C161.803 13.0223 161.762 13.058 161.74 13.1037L160.803 15.0313C160.791 15.0557 160.785 15.0822 160.785 15.1089C160.785 15.1357 160.791 15.1621 160.803 15.1865C160.815 15.2109 160.833 15.2326 160.854 15.2503C160.876 15.268 160.902 15.2812 160.929 15.2891L162.355 15.6933C162.374 15.6988 162.395 15.7016 162.415 15.7016Z" fill="#18B372"/>
</g>
<path d="M164.77 16.974C164.77 16.974 162.583 17.1869 161.05 16.6924C161.05 16.6924 161.063 18.0222 162.792 18.1531C164.522 18.2841 164.77 16.974 164.77 16.974Z" fill="#F8FCFF"/>
<path d="M102.281 22.9485C102.182 22.9487 102.087 22.9134 102.015 22.85C101.943 22.7865 101.901 22.6999 101.897 22.6083C101.893 22.5167 101.927 22.4271 101.993 22.3585C102.059 22.2898 102.151 22.2474 102.25 22.2401L114.378 21.3135C114.428 21.3096 114.478 21.315 114.527 21.3292C114.575 21.3434 114.619 21.3662 114.658 21.3964C114.696 21.4265 114.728 21.4633 114.751 21.5048C114.774 21.5462 114.788 21.5914 114.792 21.6379C114.796 21.6843 114.791 21.7311 114.775 21.7754C114.76 21.8198 114.735 21.861 114.702 21.8965C114.67 21.9321 114.63 21.9614 114.585 21.9827C114.54 22.004 114.491 22.017 114.441 22.0208L102.314 22.947C102.303 22.9481 102.292 22.9486 102.281 22.9485Z" fill="#D7E8F4"/>
<path d="M102.497 25.4019C102.397 25.4023 102.302 25.3671 102.23 25.3038C102.158 25.2404 102.115 25.1538 102.111 25.0621C102.107 24.9704 102.142 24.8807 102.207 24.812C102.273 24.7433 102.365 24.7008 102.465 24.6935L108.979 24.1817C109.03 24.177 109.081 24.1817 109.13 24.1955C109.178 24.2092 109.223 24.2318 109.263 24.2618C109.302 24.2919 109.334 24.3288 109.358 24.3704C109.381 24.4121 109.396 24.4577 109.4 24.5045C109.404 24.5513 109.398 24.5985 109.383 24.6433C109.367 24.688 109.342 24.7295 109.309 24.7652C109.276 24.8009 109.236 24.8302 109.19 24.8514C109.145 24.8726 109.095 24.8853 109.044 24.8886L102.529 25.4019H102.497Z" fill="#D7E8F4"/>
<path d="M102.749 27.1118C102.65 27.112 102.554 27.0768 102.482 27.0134C102.411 26.95 102.368 26.8634 102.364 26.7717C102.36 26.68 102.394 26.5904 102.46 26.5218C102.526 26.4531 102.618 26.4106 102.717 26.4033L107.633 26.0168C107.735 26.0088 107.835 26.0384 107.913 26.099C107.991 26.1597 108.04 26.2465 108.049 26.3403C108.057 26.4341 108.025 26.5272 107.96 26.5992C107.894 26.6712 107.8 26.7161 107.698 26.7241L102.782 27.1106C102.771 27.1114 102.76 27.1118 102.749 27.1118Z" fill="#D7E8F4"/>
<path d="M102.87 28.8971C102.771 28.8974 102.675 28.8621 102.604 28.7987C102.532 28.7353 102.489 28.6487 102.485 28.557C102.481 28.4653 102.516 28.3758 102.582 28.3071C102.647 28.2384 102.739 28.1959 102.839 28.1886L107.754 27.8025C107.805 27.7978 107.856 27.8025 107.905 27.8163C107.953 27.83 107.999 27.8526 108.038 27.8826C108.077 27.9127 108.109 27.9496 108.133 27.9913C108.156 28.0329 108.171 28.0785 108.175 28.1253C108.179 28.1722 108.174 28.2193 108.158 28.2641C108.142 28.3088 108.117 28.3503 108.084 28.386C108.051 28.4217 108.011 28.4511 107.965 28.4722C107.92 28.4934 107.87 28.5061 107.82 28.5094L102.903 28.8955C102.893 28.8966 102.881 28.8971 102.87 28.8971Z" fill="#D7E8F4"/>
<path d="M103.157 32.3801C103.058 32.3805 102.962 32.3453 102.89 32.2819C102.818 32.2186 102.776 32.1319 102.772 32.0402C102.768 31.9485 102.802 31.8589 102.868 31.7902C102.934 31.7214 103.026 31.679 103.125 31.6716L106.807 31.3821C106.908 31.3741 107.009 31.4037 107.087 31.4644C107.165 31.525 107.214 31.6118 107.222 31.7056C107.231 31.7994 107.199 31.8926 107.133 31.9645C107.067 32.0365 106.974 32.0815 106.872 32.0895L103.19 32.379C103.18 32.3797 103.168 32.3801 103.157 32.3801Z" fill="#D7E8F4"/>
<path d="M102.977 30.7239C102.878 30.7243 102.782 30.6891 102.71 30.6257C102.638 30.5624 102.596 30.4757 102.592 30.384C102.587 30.2923 102.622 30.2027 102.688 30.134C102.754 30.0652 102.846 30.0227 102.945 30.0154L108.809 29.5546C108.911 29.5466 109.012 29.5761 109.09 29.6368C109.168 29.6975 109.216 29.7842 109.225 29.878C109.234 29.9718 109.202 30.065 109.136 30.137C109.07 30.209 108.976 30.2539 108.875 30.2619L103.01 30.7239H102.977Z" fill="#D7E8F4"/>
<path d="M114.877 24.3247C114.777 24.3254 114.681 24.2905 114.609 24.2272C114.537 24.1639 114.494 24.0772 114.49 23.9854C114.486 23.8936 114.52 23.8038 114.586 23.735C114.652 23.6661 114.744 23.6236 114.843 23.6163L116.613 23.4774C116.713 23.471 116.813 23.5015 116.889 23.5621C116.966 23.6227 117.013 23.7086 117.022 23.8013C117.03 23.8941 116.999 23.9862 116.935 24.0578C116.87 24.1295 116.778 24.1749 116.678 24.1843L114.908 24.3236L114.877 24.3247Z" fill="#D7E8F4"/>
<path d="M115.129 26.0341C115.03 26.0344 114.934 25.9992 114.862 25.9358C114.791 25.8724 114.748 25.7857 114.744 25.6941C114.74 25.6024 114.774 25.5128 114.84 25.4441C114.906 25.3755 114.998 25.333 115.097 25.3257L116.614 25.2064C116.716 25.1985 116.817 25.2281 116.895 25.2888C116.973 25.3495 117.021 25.4363 117.03 25.5301C117.038 25.6239 117.006 25.717 116.941 25.7889C116.875 25.8609 116.781 25.9058 116.679 25.9137L115.162 26.033C115.151 26.0338 115.14 26.0341 115.129 26.0341Z" fill="#D7E8F4"/>
<path d="M115.252 27.8195C115.152 27.8197 115.057 27.7845 114.985 27.7211C114.913 27.6577 114.871 27.5711 114.867 27.4794C114.863 27.3877 114.897 27.2981 114.963 27.2295C115.029 27.1608 115.121 27.1183 115.22 27.111L116.846 26.983C116.948 26.975 117.049 27.0046 117.127 27.0653C117.205 27.1259 117.253 27.2127 117.262 27.3065C117.271 27.4003 117.239 27.4934 117.173 27.5654C117.107 27.6374 117.013 27.6824 116.912 27.6904L115.285 27.8183C115.273 27.8178 115.262 27.8182 115.252 27.8195Z" fill="#D7E8F4"/>
<path d="M115.538 31.3025C115.439 31.3029 115.343 31.2677 115.271 31.2043C115.199 31.141 115.157 31.0543 115.152 30.9626C115.148 30.8709 115.183 30.7813 115.249 30.7126C115.314 30.6438 115.407 30.6014 115.506 30.594L117.082 30.4702C117.133 30.4656 117.184 30.4703 117.232 30.4841C117.281 30.4978 117.326 30.5204 117.365 30.5504C117.405 30.5805 117.437 30.6174 117.46 30.659C117.484 30.7007 117.498 30.7463 117.503 30.7931C117.507 30.8399 117.501 30.8871 117.486 30.9318C117.47 30.9766 117.445 31.018 117.412 31.0538C117.379 31.0895 117.339 31.1188 117.293 31.14C117.248 31.1612 117.198 31.1738 117.147 31.1772L115.571 31.301C115.56 31.3021 115.549 31.3026 115.538 31.3025Z" fill="#D7E8F4"/>
<path d="M115.357 29.6467C115.257 29.6471 115.162 29.6119 115.09 29.5485C115.018 29.4851 114.975 29.3985 114.971 29.3068C114.967 29.2151 115.002 29.1255 115.067 29.0567C115.133 28.988 115.225 28.9455 115.325 28.9382L116.845 28.8189C116.896 28.8141 116.947 28.8186 116.996 28.8323C117.045 28.8459 117.091 28.8685 117.13 28.8986C117.169 28.9286 117.202 28.9657 117.225 29.0075C117.249 29.0493 117.263 29.095 117.268 29.142C117.272 29.189 117.266 29.2363 117.25 29.2812C117.235 29.3261 117.209 29.3676 117.176 29.4033C117.143 29.4391 117.102 29.4683 117.056 29.4894C117.011 29.5104 116.961 29.5228 116.91 29.5259L115.389 29.6455L115.357 29.6467Z" fill="#D7E8F4"/>
<path d="M111.142 37.6436C111.042 37.644 110.947 37.6088 110.875 37.5454C110.803 37.482 110.76 37.3954 110.756 37.3037C110.752 37.212 110.786 37.1224 110.852 37.0536C110.918 36.9849 111.01 36.9424 111.109 36.9351L117.622 36.4233C117.673 36.4193 117.723 36.4245 117.771 36.4386C117.819 36.4528 117.864 36.4755 117.903 36.5055C117.941 36.5356 117.973 36.5723 117.996 36.6137C118.019 36.6551 118.034 36.7003 118.038 36.7468C118.042 36.7932 118.037 36.84 118.021 36.8844C118.006 36.9288 117.981 36.97 117.949 37.0057C117.916 37.0413 117.877 37.0707 117.832 37.0921C117.787 37.1136 117.738 37.1266 117.688 37.1306L111.174 37.6424L111.142 37.6436Z" fill="#D7E8F4"/>
<path d="M112.749 39.0578C112.649 39.0582 112.553 39.0231 112.482 38.9597C112.41 38.8963 112.367 38.8097 112.363 38.718C112.359 38.6263 112.393 38.5366 112.459 38.4679C112.525 38.3992 112.617 38.3567 112.716 38.3494L117.632 37.9629C117.734 37.9549 117.835 37.9845 117.913 38.0452C117.991 38.1059 118.039 38.1927 118.048 38.2865C118.056 38.3803 118.024 38.4735 117.959 38.5454C117.893 38.6174 117.799 38.6623 117.697 38.6702L112.782 39.0567C112.77 39.0575 112.759 39.0578 112.749 39.0578Z" fill="#D7E8F4"/>
<path d="M104.487 16.148L112.85 15.5005C113.083 15.4824 113.314 15.5506 113.493 15.6899C113.671 15.8292 113.782 16.0283 113.802 16.2434L113.977 18.1733L103.857 18.9568L103.682 17.0269C103.663 16.8118 103.737 16.5984 103.887 16.4336C104.038 16.2688 104.254 16.166 104.487 16.148Z" fill="#262626"/>
<path d="M185.738 31.2385L177.594 34.5791L183.081 45.9905L191.226 42.6498L185.738 31.2385Z" fill="#262626"/>
</g>
<defs>
<clipPath id="clip0_302_457">
<rect width="196" height="183" fill="white"/>
</clipPath>
</defs>
</svg>
